<svg id="Group_5133" data-name="Group 5133" xmlns="http://www.w3.org/2000/svg" xmlns:xlink="http://www.w3.org/1999/xlink" width="181.201" height="74.298" viewBox="0 0 181.201 74.298">
  <defs>
    <clipPath id="clip-path">
      <rect id="Rectangle_1685" data-name="Rectangle 1685" width="181.201" height="74.298" fill="none"/>
    </clipPath>
  </defs>
  <g id="Group_4849" data-name="Group 4849" clip-path="url(#clip-path)">
    <path id="Path_43816" data-name="Path 43816" d="M25.169,25.475H17.74V1.706c.825-.006,1.117-.01,1.519-.01.839,0,1.855.018,2.677.031.562.009,1.033.017,1.3.017a22.316,22.316,0,0,1,4.126.394,8.748,8.748,0,0,1,3.625,1.585,8.564,8.564,0,0,1,2.63,3.586,15.469,15.469,0,0,1,1.04,6.26,21.275,21.275,0,0,1-.7,5.962,8.885,8.885,0,0,1-1.918,3.591,6.61,6.61,0,0,1-2.921,1.813,13.577,13.577,0,0,1-3.943.539M145.045,0H130V1.743h7l5.615,15.587L131.8,47.344l-16.2-45.6h8.182V0H88.005V1.743h7.818L72.013,26.814h-.808V1.7h8.32V0H54.165V1.7h8.965V55.763H51.324a4,4,0,0,1-3.469-1.937,11.615,11.615,0,0,1-1.458-3.67,29.494,29.494,0,0,1-.335-3.888c-.08-1.345-.093-1.685-.174-3.139s-.11-2.3-.243-3.675a19.483,19.483,0,0,0-.687-3.674A9.45,9.45,0,0,0,42.212,31.3a16.777,16.777,0,0,0-4.24-2.786,20.761,20.761,0,0,0-4.523-1.495q-2.222-.443-3.513-.605V26.25a19.53,19.53,0,0,0,7.511-2.222,14.473,14.473,0,0,0,4.321-3.634,10.48,10.48,0,0,0,1.938-3.877,14.3,14.3,0,0,0,.444-3.109,12.152,12.152,0,0,0-1.171-4.926,12.45,12.45,0,0,0-4-4.927A14.026,14.026,0,0,0,32.2.525,59.4,59.4,0,0,0,23.8,0H.7V1.7H9.663V55.763H.7v1.743H26.7V55.763H17.74V27.218h8.076a30.709,30.709,0,0,1,3.231.2,8.718,8.718,0,0,1,3.6,1.252,8.909,8.909,0,0,1,3.028,3.312,15.319,15.319,0,0,1,1.616,6.3l.484,6.785a30.789,30.789,0,0,0,.848,5.371,10.061,10.061,0,0,0,1.9,3.877A7.953,7.953,0,0,0,43.949,56.7a15.381,15.381,0,0,0,5.372.808H79.526V55.763h-8.32V28.1h.781L95.56,55.763H88.813v1.743h23.343V55.763h-5.868l-28.426-32.5L98.285,1.743h8.678l20.376,56.974h2.181L143.573,19.95h.161l13.892,38.767h2.018l3.189-8.779Z" transform="translate(-0.347)" fill="#fff"/>
    <path id="Path_43817" data-name="Path 43817" d="M339.3,0H317.833L323.2,14.376l5.366,14.377,5.365-14.377" transform="translate(-158.095 0)" fill="#009ebc"/>
    <path id="Path_43818" data-name="Path 43818" d="M101.358,129.372h4.077a3.685,3.685,0,0,1,2.64.915,2.765,2.765,0,0,1,.757,1.973v.026a2.744,2.744,0,0,1-2.182,2.77l2.47,3.463h-1.894l-2.248-3.189h-2.012v3.189h-1.608Zm3.96,4.534c1.149,0,1.881-.6,1.881-1.529v-.026c0-.98-.706-1.516-1.894-1.516h-2.339v3.071Z" transform="translate(-50.417 -64.351)" fill="#fff"/>
    <path id="Path_43819" data-name="Path 43819" d="M124.576,129.371h6.782v1.437h-5.175v2.379h4.587v1.437h-4.587v2.457h5.24v1.437h-6.847Z" transform="translate(-61.966 -64.351)" fill="#fff"/>
    <path id="Path_43820" data-name="Path 43820" d="M145.194,137.056l.967-1.15a4.212,4.212,0,0,0,2.888,1.189c.993,0,1.62-.457,1.62-1.15v-.026c0-.654-.365-1.007-2.064-1.4-1.948-.47-3.045-1.045-3.045-2.732v-.026c0-1.568,1.307-2.653,3.123-2.653a5.069,5.069,0,0,1,3.319,1.15l-.862,1.215a4.16,4.16,0,0,0-2.483-.941c-.941,0-1.49.483-1.49,1.085v.026c0,.706.418,1.02,2.169,1.438,1.934.47,2.94,1.163,2.94,2.679v.026c0,1.712-1.345,2.731-3.267,2.731a5.634,5.634,0,0,1-3.816-1.464" transform="translate(-72.222 -64.222)" fill="#fff"/>
    <rect id="Rectangle_1683" data-name="Rectangle 1683" width="1.607" height="9.148" transform="translate(84.263 65.02)" fill="#fff"/>
    <path id="Path_43821" data-name="Path 43821" d="M180.137,129.371h3.411a4.56,4.56,0,0,1,4.862,4.548v.026a4.579,4.579,0,0,1-4.862,4.574h-3.411Zm3.411,7.684a2.981,2.981,0,0,0,3.175-3.084v-.026a3,3,0,0,0-3.175-3.11h-1.8v6.221Z" transform="translate(-89.603 -64.351)" fill="#fff"/>
    <path id="Path_43822" data-name="Path 43822" d="M204.889,129.371h6.782v1.437H206.5v2.379h4.587v1.437H206.5v2.457h5.24v1.437h-6.848Z" transform="translate(-101.914 -64.351)" fill="#fff"/>
    <path id="Path_43823" data-name="Path 43823" d="M226.729,129.371h1.49l4.9,6.325v-6.325H234.7v9.148h-1.346l-5.044-6.508v6.508h-1.581Z" transform="translate(-112.778 -64.351)" fill="#fff"/>
    <path id="Path_43824" data-name="Path 43824" d="M253.291,130.861h-2.9v-1.49h7.422v1.49h-2.9v7.658h-1.62Z" transform="translate(-124.548 -64.351)" fill="#fff"/>
    <rect id="Rectangle_1684" data-name="Rectangle 1684" width="1.607" height="9.148" transform="translate(137.276 65.02)" fill="#fff"/>
    <path id="Path_43825" data-name="Path 43825" d="M286.914,129.241h1.49l4.024,9.213h-1.7l-.928-2.209h-4.325l-.941,2.209h-1.646Zm2.3,5.58-1.581-3.659-1.568,3.659Z" transform="translate(-140.713 -64.286)" fill="#fff"/>
    <path id="Path_43826" data-name="Path 43826" d="M309.408,129.371h1.607v7.684h4.809v1.464h-6.417Z" transform="translate(-153.904 -64.351)" fill="#fff"/>
    <line id="Line_1327" data-name="Line 1327" x2="45.987" transform="translate(0 70.512)" fill="#1a1818"/>
    <line id="Line_1328" data-name="Line 1328" x2="45.987" transform="translate(0 70.512)" fill="none" stroke="#fff" stroke-width="2"/>
  </g>
</svg>
