<svg xmlns="http://www.w3.org/2000/svg" xmlns:xlink="http://www.w3.org/1999/xlink" width="250.924" height="122.836" viewBox="0 0 250.924 122.836">
  <defs>
    <clipPath id="clip-path">
      <rect id="Rectangle_1841" data-name="Rectangle 1841" width="250.924" height="122.836" fill="none"/>
    </clipPath>
  </defs>
  <g id="Group_5215" data-name="Group 5215" transform="translate(0.001)">
    <g id="Group_5214" data-name="Group 5214" transform="translate(-0.001)" clip-path="url(#clip-path)">
      <path id="Path_44260" data-name="Path 44260" d="M136.486,213.48l4.193-3.566c1.653-1.427,2.279-2.175,2.279-3.288a1.835,1.835,0,0,0-1.966-1.9c-1.114,0-1.879.592-2.8,1.827l-1.531-1.2a5.031,5.031,0,0,1,4.488-2.54c2.366,0,4.019,1.461,4.019,3.636v.035c0,1.931-1.009,2.94-3.167,4.715l-2.5,2.087h5.793v1.879h-8.8Z" transform="translate(-62.276 -92.541)" fill="#454849"/>
      <path id="Path_44261" data-name="Path 44261" d="M157.321,209.085v-.035c0-3.479,2.123-6.3,5.324-6.3,3.184,0,5.289,2.784,5.289,6.263v.035c0,3.479-2.122,6.3-5.324,6.3s-5.289-2.784-5.289-6.263m8.4,0v-.035c0-2.4-1.235-4.367-3.114-4.367s-3.079,1.931-3.079,4.332v.035c0,2.4,1.218,4.367,3.114,4.367,1.879,0,3.08-1.948,3.08-4.332" transform="translate(-71.783 -92.512)" fill="#454849"/>
      <path id="Path_44262" data-name="Path 44262" d="M180.707,213.48l4.193-3.566c1.653-1.427,2.279-2.175,2.279-3.288a1.835,1.835,0,0,0-1.966-1.9c-1.114,0-1.879.592-2.8,1.827l-1.531-1.2a5.031,5.031,0,0,1,4.488-2.54c2.366,0,4.019,1.461,4.019,3.636v.035c0,1.931-1.009,2.94-3.167,4.715l-2.5,2.087h5.793v1.879h-8.8Z" transform="translate(-82.453 -92.541)" fill="#454849"/>
      <path id="Path_44263" data-name="Path 44263" d="M201.427,213.4l1.5-1.409a3.923,3.923,0,0,0,3.2,1.6,1.916,1.916,0,0,0,2.105-1.844v-.035c0-1.2-1.079-1.879-2.8-1.879h-.991l-.348-1.339,3.288-3.5h-5.271v-1.862h8.055v1.6l-3.393,3.479c1.844.226,3.584,1.166,3.584,3.41v.035c0,2.244-1.723,3.862-4.263,3.862a5.762,5.762,0,0,1-4.662-2.122" transform="translate(-91.908 -92.687)" fill="#454849"/>
      <rect id="Rectangle_1840" data-name="Rectangle 1840" width="7.237" height="2.001" transform="translate(122.064 116.294)" fill="#454849"/>
      <path id="Path_44264" data-name="Path 44264" d="M242.034,213.48l4.193-3.566c1.653-1.427,2.279-2.175,2.279-3.288a1.835,1.835,0,0,0-1.966-1.9c-1.114,0-1.879.592-2.8,1.827l-1.531-1.2a5.031,5.031,0,0,1,4.488-2.54c2.366,0,4.019,1.461,4.019,3.636v.035c0,1.931-1.009,2.94-3.167,4.715l-2.5,2.087h5.793v1.879h-8.8Z" transform="translate(-110.436 -92.541)" fill="#454849"/>
      <path id="Path_44265" data-name="Path 44265" d="M262.869,209.085v-.035c0-3.479,2.123-6.3,5.324-6.3,3.184,0,5.289,2.784,5.289,6.263v.035c0,3.479-2.122,6.3-5.324,6.3s-5.289-2.784-5.289-6.263m8.4,0v-.035c0-2.4-1.235-4.367-3.114-4.367s-3.079,1.931-3.079,4.332v.035c0,2.4,1.218,4.367,3.114,4.367,1.879,0,3.08-1.948,3.08-4.332" transform="translate(-119.942 -92.512)" fill="#454849"/>
      <path id="Path_44266" data-name="Path 44266" d="M286.255,213.48l4.193-3.566c1.653-1.427,2.279-2.175,2.279-3.288a1.836,1.836,0,0,0-1.966-1.9c-1.114,0-1.879.592-2.8,1.827l-1.531-1.2a5.031,5.031,0,0,1,4.488-2.54c2.366,0,4.019,1.461,4.019,3.636v.035c0,1.931-1.009,2.94-3.167,4.715l-2.5,2.087h5.793v1.879h-8.8Z" transform="translate(-130.613 -92.541)" fill="#454849"/>
      <path id="Path_44267" data-name="Path 44267" d="M312.447,212.51h-6.141l-.4-1.531,6.768-8H314.5v7.777h1.74v1.757H314.5v2.731h-2.053Zm0-1.757v-4.819l-4,4.819Z" transform="translate(-139.579 -92.614)" fill="#454849"/>
      <path id="Path_44268" data-name="Path 44268" d="M301.868,15.95a6.791,6.791,0,0,0,.919.153,29.286,29.286,0,0,1,9.977,2.186c.593.237.6.243.6.879q0,8.866,0,17.733c0,.174-.018.348-.031.6-.185-.108-.32-.173-.44-.26a18.566,18.566,0,0,0-8.229-3.4,14.576,14.576,0,0,0-9.626,1.6,11.747,11.747,0,0,0-6.232,11.59,12.094,12.094,0,0,0,9.912,11.193c5.086,1.107,9.682-.154,13.923-3.009.169-.113.331-.235.5-.346a.582.582,0,0,1,.175-.031v18.9c-.2.089-.417.2-.643.287a28.592,28.592,0,0,1-8.166,2.024,30.369,30.369,0,0,1-26.46-10.364A1.906,1.906,0,0,1,277.5,64.3q.027-18.173.007-36.345a1.7,1.7,0,0,1,.416-1.227,30.522,30.522,0,0,1,17.256-10.078,24.51,24.51,0,0,1,4.487-.544,5.275,5.275,0,0,0,.845-.152Z" transform="translate(-126.62 -7.278)" fill="#454849"/>
      <path id="Path_44269" data-name="Path 44269" d="M301.027,76.232c-9.159,0-17.022-3.556-23.411-10.6A2.178,2.178,0,0,1,277,64.067c.019-12.9.014-25.611.007-36.344a1.98,1.98,0,0,1,.484-1.406A30.929,30.929,0,0,1,294.9,16.151a24.492,24.492,0,0,1,4.537-.55,2.549,2.549,0,0,0,.52-.086c.092-.022.186-.043.279-.061l1.428,0,.023,0c.1.017.2.039.3.06a3.372,3.372,0,0,0,.58.09,29.341,29.341,0,0,1,10.069,2.2c.7.278.768.383.768,1.131q0,8.866,0,17.733c0,.121-.008.241-.017.385l-.039.673-.552-.321a2.858,2.858,0,0,1-.294-.179,18.364,18.364,0,0,0-8.11-3.353,14.331,14.331,0,0,0-9.451,1.566,11.491,11.491,0,0,0-6.1,11.34c.284,5.426,4.091,9.721,9.7,10.941,4.73,1.03,9.217.059,13.714-2.968.076-.051.15-.1.224-.156.092-.065.185-.13.279-.192a.438.438,0,0,1,.214-.064l.383-.06v19.4l-.344.156c-.15.069-.308.142-.469.207a28.654,28.654,0,0,1-8.243,2.043q-1.664.147-3.274.147m-.741-60.239c-.035.011-.12.032-.206.051a2.967,2.967,0,0,1-.634.1,24.035,24.035,0,0,0-4.437.538A30.4,30.4,0,0,0,277.9,26.675a1.427,1.427,0,0,0-.349,1.047c.008,10.734.012,23.446-.007,36.345a1.631,1.631,0,0,0,.47,1.2,30.232,30.232,0,0,0,26.235,10.276,28.11,28.11,0,0,0,8.088-2.006c.153-.061.3-.13.444-.2l.028-.012v-18.3l-.019.013c-.078.055-.155.109-.234.163-4.627,3.114-9.249,4.111-14.133,3.049-5.853-1.274-9.828-5.766-10.126-11.444a12,12,0,0,1,6.369-11.841,14.872,14.872,0,0,1,9.8-1.633,18.907,18.907,0,0,1,8.348,3.451l.036.025c0-.048,0-.1,0-.142q0-8.867,0-17.733c0-.456,0-.456-.425-.626a28.824,28.824,0,0,0-9.885-2.167,3.872,3.872,0,0,1-.675-.1c-.086-.018-.172-.037-.258-.052Z" transform="translate(-126.392 -7.05)" fill="#454849"/>
      <path id="Path_44270" data-name="Path 44270" d="M128.555,19.934l12.4,12.859c.226-.211.425-.382.606-.57q6.179-6.406,12.346-12.824a1.481,1.481,0,0,1,1.176-.508q8.159.022,16.318.009h.658c.089.094.106.109.12.127a.14.14,0,0,1,.036.055,2.109,2.109,0,0,1,.045.333q0,28.085,0,56.169a3.928,3.928,0,0,1-.052.412,6.861,6.861,0,0,1-.7.071q-8.159.006-16.318,0c-.2,0-.4-.024-.675-.042-.022-.283-.06-.542-.06-.8q-.007-3.756,0-7.511V43.943c-.411.028-.547.324-.736.519q-3.929,4.062-7.842,8.14-2.206,2.293-4.413,4.584c-.139.144-.291.275-.469.441-.164-.15-.317-.275-.453-.416q-5.786-5.986-11.574-11.97a1.329,1.329,0,0,1-.416-1.009q.019-11.843.009-23.686v-.612" transform="translate(-58.653 -8.62)" fill="#454849"/>
      <path id="Path_44271" data-name="Path 44271" d="M162.362,76.114h-7.4c-.139,0-.278-.011-.439-.024l-.489-.034-.042-.5c-.019-.192-.037-.376-.037-.56q-.006-2.978,0-5.958V44.117a1.806,1.806,0,0,0-.136.154c-.044.053-.086.105-.132.152q-3.114,3.22-6.216,6.451L145.1,53.331q-1.837,1.908-3.674,3.816c-.1.1-.2.2-.315.3l-.347.323-.339-.306c-.111-.1-.216-.191-.313-.291l-3.291-3.406q-4.139-4.284-8.282-8.564a1.584,1.584,0,0,1-.493-1.2q.015-9.734.009-19.467v-5.5L140.74,32.186l.021-.019c.136-.123.261-.238.378-.359l1.581-1.64q5.387-5.587,10.764-11.184a1.743,1.743,0,0,1,1.365-.592h.007q6.428.018,12.856.01h4.236l.155.161c.036.038.049.052.061.067a.364.364,0,0,1,.092.182l.014.076a1.71,1.71,0,0,1,.035.3q0,28.084,0,56.169a1.754,1.754,0,0,1-.029.277l-.052.383-.214.022c-.07.008-.141.017-.211.027a3.976,3.976,0,0,1-.521.046q-4.457,0-8.915,0m-7.827-.569.03,0c.145.011.27.022.4.022q8.16,0,16.317,0a3.448,3.448,0,0,0,.449-.041l.016,0a1.061,1.061,0,0,0,.018-.168q0-28.084,0-56.169a1.109,1.109,0,0,0-.026-.2l-.019-.041h-4q-6.428,0-12.857-.01h-.005a1.214,1.214,0,0,0-.973.425q-5.371,5.6-10.766,11.185l-1.581,1.639c-.125.13-.259.252-.4.383l-.408.379L128.6,20.38v4.156q0,9.734-.009,19.468a1.06,1.06,0,0,0,.34.819q4.147,4.277,8.283,8.565l3.29,3.406c.08.082.166.159.256.238.1-.09.191-.174.276-.263q1.839-1.907,3.674-3.816l2.364-2.457q3.106-3.228,6.217-6.451c.035-.036.069-.077.1-.119a1.087,1.087,0,0,1,.811-.483l.29-.02V69.042q0,2.978,0,5.957c0,.167.017.333.034.507,0,.013,0,.026,0,.039" transform="translate(-58.426 -8.392)" fill="#454849"/>
      <path id="Path_44272" data-name="Path 44272" d="M77.288,19.042c.666-.173,17.116-.182,17.778-.024v57c-.265.021-.5.057-.743.057-5.44,0-10.88,0-16.32.012a1.236,1.236,0,0,1-1.121-.57Q67.393,62.668,57.873,49.844a1.661,1.661,0,0,1-.352-1.054q.012-13.841.008-27.682a1.05,1.05,0,0,1,.148-.573L77.155,46.8a5.369,5.369,0,0,0,.127-.6c.016-.225.006-.451.006-.677V19.042" transform="translate(-26.246 -8.626)" fill="#454849"/>
      <path id="Path_44273" data-name="Path 44273" d="M77.768,76.137a1.512,1.512,0,0,1-1.333-.681Q66.947,62.609,57.426,49.784a1.922,1.922,0,0,1-.405-1.216q.01-10.446.007-20.892v-6.79a1.319,1.319,0,0,1,.184-.707l.206-.362L76.785,45.931c.009-.145.007-.291.005-.437l0-.192V18.61l.2-.053c.644-.168,17.215-.191,17.91-.026l.209.049V76.047l-.5.043a5.2,5.2,0,0,1-.519.034H89.133q-5.679,0-11.358.011Zm-20.2-55.2v6.739q0,10.446-.007,20.892a1.391,1.391,0,0,0,.3.892q9.517,12.828,19.01,25.673a.972.972,0,0,0,.895.46h.007q5.68-.016,11.359-.011h4.961a4.584,4.584,0,0,0,.465-.032h.007V19.039c-1.948-.127-15.311-.109-17.234.023l0,26.424c0,.171,0,.341-.008.511a2.214,2.214,0,0,1-.07.368c-.018.074-.04.163-.064.272l-.128.583Z" transform="translate(-26.018 -8.404)" fill="#454849"/>
      <path id="Path_44274" data-name="Path 44274" d="M211.049,56.29V39.013h17.209c.022-.4.057-.733.057-1.064q0-9,0-18c0-.309.03-.617.049-.98.3-.021.536-.054.777-.054q8.059,0,16.117,0c.135,0,.271.008.406.007.315,0,.443.171.443.468,0,.2.007.406.007.609q0,27.513,0,55.028c0,1.057,0,1.058-1.088,1.058H228.385c-.027-.39-.065-.695-.065-1q-.006-8.867-.005-17.733c0-.331-.036-.661-.059-1.055Z" transform="translate(-96.298 -8.628)" fill="#454849"/>
      <path id="Path_44275" data-name="Path 44275" d="M233.07,76.122H227.9l-.017-.253c-.009-.128-.019-.246-.029-.359-.02-.237-.037-.449-.037-.66l-.005-17.733c0-.216-.016-.432-.034-.668l-.008-.116H210.549V38.513h17.227l.008-.127c.016-.235.032-.451.032-.666l0-18c0-.213.014-.426.028-.656l.033-.577.511-.04c.187-.017.356-.032.525-.032q7.052,0,14.1,0l2.218,0,.2,0h0a.7.7,0,0,1,.515.188.752.752,0,0,1,.2.552c0,.1,0,.2,0,.306l0,.3V74.792c0,1.205-.127,1.33-1.36,1.33Zm-4.661-.544H244.8a2.34,2.34,0,0,0,.762-.056,2.207,2.207,0,0,0,.054-.73l0-55.322c0-.1,0-.21,0-.315a.264.264,0,0,0-.036-.166.242.242,0,0,0-.134-.029c-.069,0-.146,0-.219,0l-.189,0H243.02q-7.051,0-14.1,0c-.154,0-.307.014-.477.03l-.044,0-.007.108c-.014.217-.027.419-.027.62l0,18c0,.227-.016.454-.033.7l-.039.632h-17.2V55.789h17.191l.04.619c.018.25.035.479.035.708l.005,17.733c0,.2.017.394.035.614,0,.038.007.076.01.115" transform="translate(-96.07 -8.399)" fill="#454849"/>
      <path id="Path_44276" data-name="Path 44276" d="M22.787,18.988H40.429c.15.526.2,55.948.058,57.057a6.668,6.668,0,0,1-.69.067q-8.158.006-16.315,0c-.219,0-.437-.033-.694-.054Z" transform="translate(-10.397 -8.664)" fill="#454849"/>
      <path id="Path_44277" data-name="Path 44277" d="M31.1,76.159l-7.849,0c-.154,0-.309-.015-.477-.032l-.488-.042V18.489H40.406l.057.2c.217.766.117,56.778.066,57.167l-.028.213-.214.022c-.065.007-.132.015-.2.024a4.052,4.052,0,0,1-.518.044q-4.234,0-8.467,0m-8.271-.575c.148.015.285.029.422.029q8.158,0,16.315,0A3.327,3.327,0,0,0,40,75.575c.12-3.711.073-52.7-.054-56.542H22.831Z" transform="translate(-10.169 -8.436)" fill="#454849"/>
      <path id="Path_44278" data-name="Path 44278" d="M416.882,102.218a20.22,20.22,0,0,1-1.686,8.431,12.754,12.754,0,0,1-5.85,6.428,12.015,12.015,0,0,1-15.1-3.51,16.372,16.372,0,0,1-2.9-6.711,22.691,22.691,0,0,1,.593-11.557,14.14,14.14,0,0,1,3.656-6.008,11.53,11.53,0,0,1,9.418-3.219,11.8,11.8,0,0,1,9.507,6.327,17.453,17.453,0,0,1,2.169,6.919c.106.962.129,1.933.189,2.9m-7.849,0c-.143-1.274-.232-2.557-.444-3.82a7.7,7.7,0,0,0-1.6-3.751,4.031,4.031,0,0,0-6.3.039,6.438,6.438,0,0,0-1.186,2.261,18.8,18.8,0,0,0-.161,9.946,7.328,7.328,0,0,0,1.291,2.731,4.077,4.077,0,0,0,6.4.063,7.545,7.545,0,0,0,1.187-2.262,20.075,20.075,0,0,0,.816-5.207" transform="translate(-178.348 -39.245)" fill="#454849"/>
      <path id="Path_44279" data-name="Path 44279" d="M403.576,118.433a11.972,11.972,0,0,1-9.771-4.932,16.724,16.724,0,0,1-2.947-6.821,23.069,23.069,0,0,1,.6-11.693,14.284,14.284,0,0,1,3.727-6.121,11.824,11.824,0,0,1,9.63-3.293,12.107,12.107,0,0,1,9.717,6.462,17.588,17.588,0,0,1,2.2,7.025c.074.67.109,1.352.142,2.012.015.3.03.6.049.9v.016a20.343,20.343,0,0,1-1.71,8.543,12.92,12.92,0,0,1-5.974,6.559,12.519,12.519,0,0,1-5.669,1.342m-.065-32.378a11.176,11.176,0,0,0-7.95,3.2,13.76,13.76,0,0,0-3.585,5.894,22.532,22.532,0,0,0-.585,11.421,16.187,16.187,0,0,0,2.85,6.6A11.7,11.7,0,0,0,409,116.607a12.4,12.4,0,0,0,5.726-6.3A19.81,19.81,0,0,0,416.385,102c-.018-.3-.034-.6-.049-.9-.033-.651-.067-1.325-.139-1.979a17.051,17.051,0,0,0-2.134-6.813,11.589,11.589,0,0,0-9.3-6.193q-.638-.059-1.256-.059m.118,25.2H403.6a4.285,4.285,0,0,1-3.414-1.691,7.615,7.615,0,0,1-1.339-2.831,19.159,19.159,0,0,1,.165-10.087,6.714,6.714,0,0,1,1.236-2.355,4.3,4.3,0,0,1,6.724-.041,7.921,7.921,0,0,1,1.659,3.879c.149.885.238,1.79.325,2.666.039.389.077.779.121,1.168l0,.024,0,.024a20.217,20.217,0,0,1-.83,5.276,7.773,7.773,0,0,1-1.23,2.343,4.255,4.255,0,0,1-3.389,1.625m0-18.06h-.021a3.827,3.827,0,0,0-2.937,1.439,6.187,6.187,0,0,0-1.136,2.167,18.624,18.624,0,0,0-.158,9.8,7.073,7.073,0,0,0,1.243,2.63,3.8,3.8,0,0,0,5.97.06,7.249,7.249,0,0,0,1.144-2.181,19.728,19.728,0,0,0,.8-5.114c-.043-.383-.081-.767-.118-1.152-.086-.867-.175-1.763-.321-2.629a7.388,7.388,0,0,0-1.54-3.621,3.82,3.82,0,0,0-2.927-1.4" transform="translate(-178.124 -39.017)" fill="#454849"/>
      <path id="Path_44280" data-name="Path 44280" d="M348.685,105.368V87.039c.514-.132,17.327-.175,18.269-.053a61.051,61.051,0,0,1,.028,6.947h-11.86a17.2,17.2,0,0,0-.061,3.895,4.317,4.317,0,0,0,.436,0,14.031,14.031,0,0,1,7.293.963,9.536,9.536,0,0,1,5.9,8.191,10.659,10.659,0,0,1-.514,4.734,10.035,10.035,0,0,1-6.3,6.182,14.4,14.4,0,0,1-5.04.88,16.131,16.131,0,0,1-7.35-1.535c-.505-.247-.986-.545-1.482-.811a.609.609,0,0,1-.359-.592c.009-2.188.008-4.377.013-6.565a1.176,1.176,0,0,1,.069-.245,3.433,3.433,0,0,1,.391.235,13.066,13.066,0,0,0,6.158,2.778,8.646,8.646,0,0,0,4.215-.229,3.668,3.668,0,0,0,1.125-6.609,6.382,6.382,0,0,0-3.4-.974,20.264,20.264,0,0,0-7.062,1.018c-.126.042-.256.069-.464.122" transform="translate(-158.623 -39.657)" fill="#454849"/>
      <path id="Path_44281" data-name="Path 44281" d="M356.425,118.819a16.221,16.221,0,0,1-7.29-1.563c-.316-.155-.623-.329-.93-.5-.186-.105-.372-.212-.561-.313a.875.875,0,0,1-.5-.832q.008-2.012.009-4.023l0-2.542a.649.649,0,0,1,.048-.222l.128-.436.433.253a1.974,1.974,0,0,1,.293.184,12.848,12.848,0,0,0,6.031,2.721,8.349,8.349,0,0,0,4.085-.218,3.4,3.4,0,0,0,1.062-6.124,6.1,6.1,0,0,0-3.262-.929,20,20,0,0,0-6.967,1c-.088.029-.178.051-.291.079l-.531.137V86.6l.2-.052c.53-.136,17.356-.19,18.372-.06l.182.024.046.177a59.527,59.527,0,0,1,.034,7.055l-.034.232H355.116a20.088,20.088,0,0,0-.04,3.356c.055,0,.111,0,.166-.006a14.1,14.1,0,0,1,7.432.986,9.825,9.825,0,0,1,6.059,8.409,10.985,10.985,0,0,1-.528,4.854,10.347,10.347,0,0,1-6.464,6.346,14.57,14.57,0,0,1-5.134.9h-.182m-8.727-9.588,0,2.354q0,2.013-.009,4.025a.341.341,0,0,0,.215.352c.192.1.382.211.573.319.3.169.594.338.9.488a15.806,15.806,0,0,0,7.228,1.507,14.022,14.022,0,0,0,4.945-.862,9.7,9.7,0,0,0,6.145-6.018,10.441,10.441,0,0,0,.5-4.615,9.315,9.315,0,0,0-5.742-7.972,13.592,13.592,0,0,0-7.155-.94,2.643,2.643,0,0,1-.334.005l-.363,0-.034-.232a17.267,17.267,0,0,1,.07-4.013l.059-.193h11.816c.1-1.256.061-5.432-.022-6.419-2-.091-15.8-.054-17.758.045v17.732c.037-.01.072-.02.107-.032a20.578,20.578,0,0,1,7.155-1.031,6.619,6.619,0,0,1,3.546,1.019,3.939,3.939,0,0,1-1.189,7.093,8.881,8.881,0,0,1-4.346.24,13.386,13.386,0,0,1-6.284-2.835l-.02-.015" transform="translate(-158.395 -39.429)" fill="#454849"/>
      <path id="Path_44282" data-name="Path 44282" d="M109.719,150.879h1.426v1.043c-1.284.116-2.594.037-3.948.048v-1.049l1.135-.06c.136-.518.175-10.8.041-11.694l-1.16-.094v-1.005h2.733c.812,1.4,1.647,2.837,2.481,4.276s1.665,2.877,2.573,4.446l4.941-8.735H122.8v1l-1.24.118v11.672l1.243.07v1c-1.323.118-2.663.035-4.066.049v-1.048l1.342-.07V140.216c-.122.176-.225.3-.3.438q-2.182,3.854-4.363,7.709c-.307.539-.666.521-1-.048q-2.27-3.92-4.52-7.851c-.033-.057-.048-.124-.175-.113Z" transform="translate(-48.912 -62.992)" fill="#454849"/>
      <path id="Path_44283" data-name="Path 44283" d="M109.225,152.03c-.324,0-.652,0-.987-.009-.418-.005-.839-.011-1.266-.008l-.274,0v-1.581l1.164-.061c.1-1.434.128-9.6.033-11.182l-1.182-.1v-1.528h3.162l4.9,8.447,4.785-8.46h3.284v1.522l-1.24.118v11.168l1.243.069v1.511l-.248.022a26.637,26.637,0,0,1-2.735.057c-.445-.006-.895-.011-1.352-.007l-.275,0v-1.581l1.343-.07v-9.444l-1.361,2.408q-1.4,2.471-2.8,4.939a.857.857,0,0,1-.708.529h0c-.281,0-.534-.194-.756-.575q-1.85-3.195-3.685-6.4l-.5-.875v9.428h1.427v1.564l-.247.022c-.571.052-1.138.065-1.717.065m-1.984-.561c.337,0,.671,0,1,.009.83.011,1.617.022,2.4-.034v-.521h-1.427v-11.05l.248-.021a.4.4,0,0,1,.427.235l.843,1.469q1.838,3.2,3.684,6.4c.139.24.248.3.286.3s.123-.053.237-.254q1.4-2.465,2.8-4.937l1.566-2.772a3.2,3.2,0,0,1,.2-.3l.608-.867v11.76l-1.343.07v.517c.366,0,.731,0,1.09.009.84.011,1.638.021,2.433-.035v-.5l-1.243-.07V138.7l1.24-.118V138.1h-2.423l-5.1,9.011-5.213-9h-2.3v.483l1.125.091.032.214c.145.973.1,11.232-.048,11.8l-.05.192-1.075.057Z" transform="translate(-48.684 -62.764)" fill="#454849"/>
      <path id="Path_44284" data-name="Path 44284" d="M169.218,140.121c-.1,3.58-.121,7.121-.1,10.732h1.527v1.034H166.6v-1l1.143-.059c.161-.482.227-10.364.073-11.69l-1.217-.1v-1.011c.416-.009.856-.029,1.3-.025a3.417,3.417,0,0,1,1.39.089c.359.179.564.678.825,1.044q3.509,4.934,7.015,9.87c.072.1.165.187.322.36V139.14l-1.515-.11v-.991h4.039v.985l-1.271.117V151.8c-.866.267-1.021.223-1.469-.405q-3.657-5.12-7.31-10.241c-.242-.34-.472-.688-.707-1.033" transform="translate(-76.019 -62.955)" fill="#454849"/>
      <path id="Path_44285" data-name="Path 44285" d="M177.753,152c-.372,0-.621-.188-.967-.673q-3.656-5.119-7.31-10.241-.12-.168-.237-.339c-.072,2.874-.1,5.959-.082,9.608h1.528v1.577H166.1V150.4l1.179-.061c.109-1.345.189-9.3.059-11.178l-1.238-.1V137.53l.651-.016c.3-.008.61-.016.918-.015.122,0,.248-.005.376-.012a2.257,2.257,0,0,1,1.133.129,1.978,1.978,0,0,1,.725.817c.066.108.13.216.2.314l6.843,9.628v-9.212l-1.515-.11v-1.516h4.582v1.5l-1.271.118v12.613l-.191.059a2.878,2.878,0,0,1-.8.165m-9.011-12.95.7,1.022c.158.234.316.469.48.7q3.653,5.122,7.31,10.241c.334.468.383.534.976.362V138.665l1.271-.118v-.465h-3.5v.467l1.515.11v11.184l-.615-.678a2.2,2.2,0,0,1-.2-.232l-7.014-9.87c-.077-.108-.15-.227-.222-.346a1.639,1.639,0,0,0-.5-.613,1.9,1.9,0,0,0-.862-.073c-.139.008-.277.011-.409.013-.3,0-.6.006-.9.015l-.123,0v.5l1.19.1.026.221c.131,1.13.113,11.215-.086,11.808l-.059.176-1.071.055v.47h3.493v-.49h-1.525v-.271c-.021-4.135.012-7.548.1-10.741Z" transform="translate(-75.791 -62.727)" fill="#454849"/>
      <path id="Path_44286" data-name="Path 44286" d="M282.664,150.86v1.045a11.963,11.963,0,0,1-2.232.009c-.159-.012-.337-.266-.441-.446-.837-1.443-1.687-2.88-2.472-4.352a1.16,1.16,0,0,0-1.268-.729c-.582.052-1.173.007-1.759.014-.219,0-.437.032-.682.051v4.379H275.2V151.9c-1.344.1-2.7.039-4.114.041V150.9l1.125-.06c.153-.488.211-10.505.064-11.687l-1.194-.114v-.978a4.251,4.251,0,0,1,.48-.055c1.738,0,3.476-.026,5.213.017a7.474,7.474,0,0,1,1.928.306,3.607,3.607,0,0,1,2.735,3.328,5.8,5.8,0,0,1-.139,1.874,3.385,3.385,0,0,1-2,2.33c-.22.1-.44.2-.688.315.08.178.133.324.208.458.708,1.257,1.432,2.506,2.126,3.771a.738.738,0,0,0,.8.465c.285-.03.576-.006.914-.006m-8.846-5.614a28.278,28.278,0,0,0,3.54-.027c2.054-.263,2.966-1.683,2.582-3.722a2.522,2.522,0,0,0-2.13-2.16,15.109,15.109,0,0,0-2.284-.161c-.556-.023-1.113,0-1.708,0Z" transform="translate(-123.691 -62.964)" fill="#454849"/>
      <path id="Path_44287" data-name="Path 44287" d="M281.349,152.006c-.361,0-.746-.016-1.166-.048-.225-.017-.439-.207-.656-.58l-.4-.683c-.7-1.2-1.416-2.434-2.079-3.678a.892.892,0,0,0-1-.586,10.974,10.974,0,0,1-1.17.02c-.2,0-.407-.007-.61,0-.136,0-.271.014-.413.027v3.858h1.395v1.592l-.251.018c-.97.073-1.924.062-2.933.051-.4,0-.8-.009-1.2-.008h-.272V150.41l1.161-.062c.121-1.4.158-9.467.049-11.179l-1.215-.116v-1.465l.4-.051a2.506,2.506,0,0,1,.355-.035l1.287,0c1.288-.005,2.621-.011,3.933.021a7.735,7.735,0,0,1,2,.318,3.877,3.877,0,0,1,2.929,3.561,6.046,6.046,0,0,1-.145,1.963,3.63,3.63,0,0,1-2.148,2.514l-.447.206a1.875,1.875,0,0,0,.09.188q.352.625.706,1.246c.478.84.956,1.681,1.421,2.528.15.272.277.349.533.325a4.975,4.975,0,0,1,.638-.012c.1,0,.2,0,.3,0h.272v1.56l-.242.027a10.207,10.207,0,0,1-1.116.058M276.2,145.88a1.408,1.408,0,0,1,1.334.881c.657,1.235,1.375,2.467,2.069,3.66l.4.683a.9.9,0,0,0,.25.316,12.37,12.37,0,0,0,1.916.01v-.53h-.045a4.308,4.308,0,0,0-.569.009,1.018,1.018,0,0,1-1.067-.6c-.464-.845-.94-1.683-1.417-2.521q-.354-.624-.707-1.247a3.105,3.105,0,0,1-.149-.319l-.181-.408.931-.427a3.114,3.114,0,0,0,1.849-2.147,5.5,5.5,0,0,0,.132-1.784,3.329,3.329,0,0,0-2.543-3.094,7.19,7.19,0,0,0-1.856-.295c-1.3-.033-2.633-.027-3.917-.021l-1.289,0a1.454,1.454,0,0,0-.208.019v.495l1.165.11.027.217c.118.95.125,11.166-.075,11.8l-.057.18-1.056.057v.515c.315,0,.627,0,.937.008.909.01,1.772.021,2.634-.032v-.542H273.31v-4.9l.473-.039c.165-.016.321-.03.477-.032.208,0,.417,0,.626,0a10.309,10.309,0,0,0,1.112-.018c.068-.006.135-.009.2-.009m-.388-.544c-.368,0-.735-.011-1.1-.023s-.745-.023-1.123-.023h-.272v-6.618l.816,0c.4,0,.788-.008,1.174.008.172.007.344.012.517.016a10.867,10.867,0,0,1,1.809.151,2.79,2.79,0,0,1,2.345,2.376,3.548,3.548,0,0,1-.468,2.8,3.308,3.308,0,0,1-2.347,1.243,10.716,10.716,0,0,1-1.355.075m-1.948-.588c.291,0,.581.012.869.022a14.859,14.859,0,0,0,2.365-.048,2.747,2.747,0,0,0,1.976-1.023,3.027,3.027,0,0,0,.374-2.379,2.255,2.255,0,0,0-1.916-1.943,10.4,10.4,0,0,0-1.719-.14c-.175,0-.35-.009-.524-.016-.377-.016-.756-.012-1.147-.008l-.278,0Z" transform="translate(-123.463 -62.736)" fill="#454849"/>
      <path id="Path_44288" data-name="Path 44288" d="M230.5,139.2c.042-.416.085-.833.132-1.29h.88a19.15,19.15,0,0,1,.059,3.86h-1.048c-.057-.14-.108-.263-.156-.387a3.662,3.662,0,0,0-3.45-2.485,5.67,5.67,0,0,0-6.06,6.04,5.99,5.99,0,0,0,1.459,4.046A5.7,5.7,0,0,0,227.4,150.8a6.042,6.042,0,0,0,2.859-.949,1.033,1.033,0,0,0,.547-1c-.039-.782-.01-1.567-.01-2.443h-4.029v-1.05a36.915,36.915,0,0,1,5.277-.058,49.23,49.23,0,0,1,.054,6.445h-.925l-.231-1.017c-.17.085-.306.145-.434.219a7.544,7.544,0,0,1-7.623.171,6.448,6.448,0,0,1-3.434-5.064,7.423,7.423,0,0,1,.7-4.606,6.673,6.673,0,0,1,5.8-3.745,6.281,6.281,0,0,1,2.346.216,4.078,4.078,0,0,1,2.068,1.343l.141-.064" transform="translate(-100.086 -62.82)" fill="#454849"/>
      <path id="Path_44289" data-name="Path 44289" d="M226.316,152.113a8.126,8.126,0,0,1-3.787-.985,6.7,6.7,0,0,1-3.577-5.264,7.7,7.7,0,0,1,.725-4.772,6.934,6.934,0,0,1,6.017-3.89,6.443,6.443,0,0,1,2.446.227,4.515,4.515,0,0,1,1.9,1.1l.114-1.121h1.33l.057.2a19.1,19.1,0,0,1,.069,3.963l-.023.245h-1.478l-.123-.3c-.036-.089-.071-.172-.1-.257a3.408,3.408,0,0,0-3.207-2.31,5.528,5.528,0,0,0-4.134,1.493,5.752,5.752,0,0,0-1.643,4.27,5.689,5.689,0,0,0,1.391,3.87,5.4,5.4,0,0,0,4.856,1.724,5.741,5.741,0,0,0,2.733-.9.761.761,0,0,0,.426-.755c-.027-.554-.022-1.1-.016-1.686q0-.245,0-.5h-4.028v-1.534l.2-.052a36.745,36.745,0,0,1,5.377-.065l.176.022.051.17a48.355,48.355,0,0,1,.064,6.556l-.029.239h-1.382l-.2-.893c-.038.019-.075.039-.111.059a8.215,8.215,0,0,1-4.1,1.16m.038-14.393c-.2,0-.4.008-.62.023a6.421,6.421,0,0,0-5.574,3.6,7.165,7.165,0,0,0-.67,4.442,6.178,6.178,0,0,0,3.291,4.862,7.279,7.279,0,0,0,7.363-.165c.091-.052.185-.1.291-.15l.466-.231.26,1.143h.46c.1-1.327.055-5.021-.04-5.922a45.4,45.4,0,0,0-4.772.041v.545h4.028v.272c0,.266,0,.524,0,.776-.006.574-.011,1.116.015,1.653a1.309,1.309,0,0,1-.668,1.235,6.283,6.283,0,0,1-2.986.993,5.985,5.985,0,0,1-5.312-1.9,6.213,6.213,0,0,1-1.528-4.224,6.289,6.289,0,0,1,1.807-4.668,6.056,6.056,0,0,1,4.536-1.647,3.924,3.924,0,0,1,3.693,2.66c.027.07.054.139.084.212h.615a22.368,22.368,0,0,0-.035-3.317h-.409l-.122,1.2-.477.215-.132-.166a3.813,3.813,0,0,0-1.936-1.253,5.39,5.39,0,0,0-1.625-.228" transform="translate(-99.858 -62.591)" fill="#454849"/>
      <path id="Path_44290" data-name="Path 44290" d="M52.169,137.691a7.169,7.169,0,1,1-7.191,7.155,6.949,6.949,0,0,1,7.191-7.155M52.2,138.9a5.481,5.481,0,0,0-5.5,4.15,6.9,6.9,0,0,0-.017,3.547,5.622,5.622,0,0,0,10.822.255,6.9,6.9,0,0,0,.153-3.411A5.51,5.51,0,0,0,52.2,138.9" transform="translate(-20.523 -62.824)" fill="#454849"/>
      <path id="Path_44291" data-name="Path 44291" d="M51.888,152.072h-.023A7.551,7.551,0,0,1,46.671,139.2a7.276,7.276,0,0,1,5.271-2.01,7.191,7.191,0,0,1,5.235,2.081,7.428,7.428,0,0,1,2.141,5.425,7.221,7.221,0,0,1-7.43,7.376m-.168-14.341a6.757,6.757,0,0,0-4.672,1.861,6.915,6.915,0,0,0,4.818,11.936h.022a6.693,6.693,0,0,0,6.887-6.838,6.887,6.887,0,0,0-1.981-5.033,6.655,6.655,0,0,0-4.848-1.923h-.014c-.071,0-.142,0-.212,0m.2,13.136-.153,0a5.777,5.777,0,0,1-5.573-4.433,7.168,7.168,0,0,1,.018-3.685,5.781,5.781,0,0,1,5.737-4.351h.023a5.762,5.762,0,0,1,5.726,4.759,7.2,7.2,0,0,1-.159,3.543,5.824,5.824,0,0,1-5.62,4.169m.028-11.928a5.187,5.187,0,0,0-5.211,3.948,6.627,6.627,0,0,0-.016,3.409,5.35,5.35,0,0,0,10.3.243,6.663,6.663,0,0,0,.146-3.278,5.229,5.229,0,0,0-5.195-4.322Z" transform="translate(-20.294 -62.596)" fill="#454849"/>
      <path id="Path_44292" data-name="Path 44292" d="M146.852,139.162l4.44,11.669,1.008.067v1.012h-3.888v-1l1.4-.072-.96-2.538h-6.333l-.978,2.549h1.573v1.093c-1.3.039-2.6.026-3.952,0V150.9l1-.059,4.522-11.678-1.285-.114v-1.03c1.546-.007,3.089-.01,4.683.006v1.012l-1.232.125m-1.14.6L143,147.038h5.372l-2.664-7.278" transform="translate(-63.496 -62.973)" fill="#454849"/>
      <path id="Path_44293" data-name="Path 44293" d="M141.087,152.007c-.677,0-1.386-.009-2.161-.021l-.268,0v-1.565l1.086-.064,4.328-11.178-1.173-.1v-1.548l.271,0c1.547-.007,3.09-.01,4.687.006l.269,0v1.527l-1.123.114,4.252,11.175,1.088.072v1.539h-4.432V150.42l1.283-.067-.762-2.013h-5.959l-.769,2.005h1.45v1.629l-.264.008c-.593.017-1.185.024-1.8.024m-1.885-.561c1.255.02,2.34.027,3.409,0v-.557h-1.7L142.1,147.8h6.708l1.159,3.062-1.512.078v.475H151.8v-.486l-.928-.061L146.243,138.7l1.34-.135v-.5c-1.405-.012-2.772-.01-4.139,0v.51l1.4.125-4.715,12.178-.923.054Zm9.333-4.364h-6.152l3.1-8.335Zm-5.369-.544h4.592l-2.277-6.221Z" transform="translate(-63.267 -62.745)" fill="#454849"/>
      <path id="Path_44294" data-name="Path 44294" d="M202.822,151.9v-.957l1.362-.068c-.275-.9-.621-1.719-.959-2.554h-6.3l-.984,2.574h1.584v.965a14.655,14.655,0,0,1-4,.027v-.94l1.044-.071,4.519-11.677-1.269-.11V138.1h4.662v.982l-1.156.1a3.859,3.859,0,0,0,.117.518c1.351,3.56,2.713,7.116,4.054,10.68.152.4.364.586.79.533a2.56,2.56,0,0,1,.447.029v.923a15.435,15.435,0,0,1-3.909.034m-2.708-12.1-2.712,7.289h5.378l-2.666-7.289" transform="translate(-88.301 -63.014)" fill="#454849"/>
      <path id="Path_44295" data-name="Path 44295" d="M195.2,152.057a10.555,10.555,0,0,1-1.971-.133l-.206-.052v-1.406l1.125-.077,4.326-11.178-1.156-.1V137.6h5.206v1.5l-1.1.094a1.054,1.054,0,0,0,.047.176l1.34,3.524q1.362,3.576,2.714,7.157c.131.346.256.389.5.358a1.4,1.4,0,0,1,.344.011c.048.005.1.012.157.016l.252.018v1.371l-.184.063a15.47,15.47,0,0,1-4.054.042l-.215-.046v-1.436l1.268-.063c-.214-.645-.464-1.26-.707-1.857l-.07-.171h-5.934l-.776,2.03h1.46v1.42l-.169.069a9.355,9.355,0,0,1-2.2.171m-1.633-.622a18.07,18.07,0,0,0,3.454-.012v-.482h-1.707l1.191-3.118h6.675l.207.51c.289.71.589,1.445.829,2.237l.1.334-1.451.072v.467a18.879,18.879,0,0,0,3.366-.022v-.459a.615.615,0,0,0-.142,0,.938.938,0,0,1-1.078-.706q-1.347-3.582-2.713-7.156l-1.34-3.523a2.151,2.151,0,0,1-.1-.383c-.01-.055-.02-.113-.033-.173l-.066-.3,1.216-.1v-.461h-4.118v.465l1.381.12-4.712,12.176-.964.066Zm9.374-4.3h-6.158l3.105-8.347Zm-5.375-.544h4.6l-2.279-6.232Z" transform="translate(-88.073 -62.786)" fill="#454849"/>
      <path id="Path_44296" data-name="Path 44296" d="M248.26,150.92l1.252-.055V139.184l-1.233-.105V138.07h9.712V141l-1.014.053-.283-1.8h-5.654v5.123h5.316v1.183h-5.313v5.172a33.506,33.506,0,0,0,5.937.017l.246-1.925,1.071-.047c.013,1.092.017,2.112,0,3.161H248.26Z" transform="translate(-113.277 -62.999)" fill="#454849"/>
      <path id="Path_44297" data-name="Path 44297" d="M258.331,151.979H247.76v-1.548l1.251-.054V139.2l-1.233-.1v-1.53h10.256v3.461l-1.516.079-.285-1.815h-5.15v4.58H256.4V145.6h-5.313v4.676a41.42,41.42,0,0,0,5.421.009l.25-1.955,1.581-.07,0,.281c.011.929.018,2.032,0,3.17Zm-10.028-.544H257.8c.015-.924.01-1.819,0-2.605l-.561.025-.24,1.879-.177.047a32.833,32.833,0,0,1-6.1-.023l-.182-.064v-5.636h5.313v-.639H250.54v-5.667H256.7l.281,1.79.511-.027v-2.4h-9.169v.487l1.233.1V150.9l-1.251.054Z" transform="translate(-113.048 -62.771)" fill="#454849"/>
      <path id="Path_44298" data-name="Path 44298" d="M78,146.613v4.212h1.49v1.07H75.277v-1l1.127-.06c.152-.49.21-10.487.064-11.688l-1.195-.112v-.986c.2-.018.37-.048.545-.048,1.647,0,3.295-.039,4.94.021a7.814,7.814,0,0,1,2.247.4,3.624,3.624,0,0,1,2.535,3.484,5.9,5.9,0,0,1-.054,1.347,3.833,3.833,0,0,1-3.386,3.213,22.7,22.7,0,0,1-2.628.149c-.468.018-.938,0-1.467,0m0-1.188c1.121,0,2.162.059,3.193-.013a2.832,2.832,0,0,0,2.88-2.756,2.886,2.886,0,0,0-2.8-3.434,29.571,29.571,0,0,0-3.175-.015c-.033,0-.066.056-.1.089Z" transform="translate(-34.346 -62.96)" fill="#454849"/>
      <path id="Path_44299" data-name="Path 44299" d="M79.537,151.938h-4.76V150.4l1.162-.062c.12-1.4.157-9.462.048-11.179l-1.214-.114v-1.482l.427-.041a3.323,3.323,0,0,1,.388-.03q.657,0,1.314-.007c1.19-.008,2.423-.016,3.636.028a8.084,8.084,0,0,1,2.326.414,3.9,3.9,0,0,1,2.716,3.724,6.059,6.059,0,0,1-.058,1.41,4.08,4.08,0,0,1-3.612,3.435,14.86,14.86,0,0,1-1.975.133c-.228,0-.456.01-.683.019-.323.013-.646.01-.99.006h-.216v3.666h1.491Zm-4.217-.544h3.673v-.526H77.5v-4.755l.766,0c.334,0,.649.006.963-.006.231-.009.461-.015.692-.02a14.4,14.4,0,0,0,1.9-.127,3.563,3.563,0,0,0,3.161-2.99,5.526,5.526,0,0,0,.051-1.285,3.35,3.35,0,0,0-2.352-3.243,7.546,7.546,0,0,0-2.168-.385c-1.2-.043-2.428-.035-3.613-.027q-.658,0-1.317.007a2.355,2.355,0,0,0-.272.02v.494l1.166.109.026.217c.117.954.123,11.172-.074,11.8l-.057.181-1.058.057Zm4.469-5.9c-.322,0-.646-.005-.98-.011s-.683-.012-1.035-.012H77.5v-6.519l.089-.081a.376.376,0,0,1,.284-.161c.315,0,.629-.01.944-.019a17.285,17.285,0,0,1,2.261.035,3.15,3.15,0,0,1,3.038,3.726,3.115,3.115,0,0,1-3.132,3.006c-.4.028-.8.036-1.2.036m-1.743-.565c.261,0,.519.007.772.011.739.012,1.436.024,2.131-.024a2.551,2.551,0,0,0,2.627-2.5,2.628,2.628,0,0,0-2.552-3.143,16.9,16.9,0,0,0-2.19-.033c-.263.008-.526.015-.788.018Z" transform="translate(-34.118 -62.731)" fill="#454849"/>
      <path id="Path_44300" data-name="Path 44300" d="M27.242,139.237H24.084l-.25,1.957h-.96v-3.121H33.2c.024,1.034.011,2.056,0,3.125h-.964c-.077-.625-.156-1.264-.239-1.945H28.787V150.88h1.395v1.086c-1.431.037-2.856.018-4.324.013V150.93l1.333-.063c.135-.523.18-10.57.052-11.631" transform="translate(-10.437 -63)" fill="#454849"/>
      <path id="Path_44301" data-name="Path 44301" d="M27.958,152.033c-.493,0-.991,0-1.5-.006l-1.1,0v-1.579l1.364-.064c.106-1.431.137-9.386.042-11.1H24.095l-.25,1.957H22.374v-3.665H33.233l.007.265c.021.891.014,1.76.007,2.679l-.005.725H31.767l-.239-1.945h-2.7v11.084h1.395V152l-.265.007c-.67.017-1.332.022-2,.022m-2.058-.552.561,0c1.106.007,2.156.012,3.219-.01v-.549H28.286V138.753h3.723l.239,1.945H32.7l0-.185c.006-.824.012-1.606,0-2.4H22.918v2.578h.449l.25-1.957h3.638l.029.239c.133,1.1.083,11.183-.058,11.731l-.051.194-1.274.06Z" transform="translate(-10.209 -62.772)" fill="#454849"/>
      <path id="Path_44302" data-name="Path 44302" d="M246.758,0H4.165A4.171,4.171,0,0,0,0,4.166V93.754a4.171,4.171,0,0,0,4.165,4.165H246.758a4.17,4.17,0,0,0,4.165-4.165V4.166A4.17,4.17,0,0,0,246.758,0m0,96.774H4.165a3.023,3.023,0,0,1-3.019-3.02V4.166a3.024,3.024,0,0,1,3.019-3.02H246.758a3.023,3.023,0,0,1,3.019,3.02V93.754a3.023,3.023,0,0,1-3.019,3.02" fill="#454849"/>
    </g>
  </g>
</svg>
