<svg xmlns="http://www.w3.org/2000/svg" xmlns:xlink="http://www.w3.org/1999/xlink" width="224.611" height="254.282" viewBox="0 0 224.611 254.282">
  <defs>
    <clipPath id="clip-path">
      <rect id="Rectangle_1843" data-name="Rectangle 1843" width="224.611" height="254.282" fill="none"/>
    </clipPath>
  </defs>
  <g id="Group_5217" data-name="Group 5217" transform="translate(-0.001)">
    <g id="Group_5216" data-name="Group 5216" transform="translate(0.001)" clip-path="url(#clip-path)">
      <path id="Path_44303" data-name="Path 44303" d="M129.012,223.328l-.593-4.144c48.5-6.791,86.891-47.483,91.549-96.189,5.48-57.3-34.755-109.354-91.68-117.66C55.128-5.337-6.779,58.092,5.759,131.025c7.851,45.664,45.042,81.751,90.892,88.365l-.61,3.916a103.791,103.791,0,0,1-27.6-7.58A112.322,112.322,0,0,1,97.373.991c75.423-9.912,138.657,56,125.493,131.02-8.248,47-46.534,84.544-93.854,91.317" transform="translate(0 0)" fill="#454849"/>
      <path id="Path_44304" data-name="Path 44304" d="M182.12,165c8.313.562,22.611-2.763,25.9,7.742,1.775,5.672.845,13.931-5.552,16.157l-.038.264,7.906,19.045-8.161.134-.708-.24-7.019-16.855c-.515-.874-4.04-.849-4.04.094v16.574l-.883.393-7.4-.1Zm8.287,18.744h6.018a6.672,6.672,0,0,0,2.473-1.276c1.883-1.824,2.055-5.956.858-8.172-1.68-3.109-6.4-2.527-9.349-2.391Z" transform="translate(-83.098 -75.252)" fill="#454849"/>
      <path id="Path_44305" data-name="Path 44305" d="M254.762,208.752c-.434-.141-.565-2.327-.7-2.859-.042-.175.085-.44-.288-.3-.618.24-2.16,1.665-3,2.129-6.014,3.32-14.469,2.392-15.79-5.441-1.735-10.285,5.714-15.694,13.884-19.55.8-.376,4.409-1.6,4.571-2.137a13.172,13.172,0,0,0-.4-5.248c-1.365-3.368-6.882-3.145-8.2,0-.487,1.16-.366,2.388-.932,3.409h-8.385c.109-9.9,8.5-14.368,17.605-12.771,6.055,1.061,8.839,4.684,9.226,10.7.6,9.381-.49,19.385-.006,28.813.026.505.72,3.247.107,3.247Zm-1.283-10.358V187.739l-.39-.2c-3.715,2.393-9.2,5.215-9.482,10.252-.127,2.271.543,4.171,3.065,4.449,3.075.339,5.14-1.527,6.808-3.848" transform="translate(-107.105 -75.594)" fill="#454849"/>
      <path id="Path_44306" data-name="Path 44306" d="M137.883,164.017c9.249-.757,14.823,3.511,15.427,12.866.349,5.411.577,17.167-.484,22.2-2.9,13.76-26.064,12.48-26.738-1.885.416-7.112-.565-14.869-.01-21.9.543-6.889,5.138-10.734,11.806-11.279m.584,7.293c-2.564.37-4.005,2.578-4.269,5,.324,6.271-.515,13.115-.032,19.319.166,2.135.959,4.379,3.11,5.177,3.614,1.341,7.165-.312,7.7-4.249.838-6.18-.526-13.932.058-20.279-.208-3.6-3.119-5.469-6.565-4.972" transform="translate(-57.447 -74.799)" fill="#454849"/>
      <path id="Path_44307" data-name="Path 44307" d="M187.043,399.928c7.91-.768,8.569,11.527.723,11.789-7.316.244-8.4-11.043-.723-11.789" transform="translate(-82.936 -182.464)" fill="#454849"/>
      <path id="Path_44308" data-name="Path 44308" d="M215.182,399.922c8.15-.86,8.751,11.527.92,11.788-7.4.247-8.158-11.025-.92-11.788" transform="translate(-95.881 -182.458)" fill="#454849"/>
      <path id="Path_44309" data-name="Path 44309" d="M201.765,377.437c7.316-.276,8.091,10.9.921,11.592-8.232.8-8.521-11.306-.921-11.592" transform="translate(-89.559 -172.215)" fill="#454849"/>
      <path id="Path_44310" data-name="Path 44310" d="M98.053,90.723l3.919,6.054-2.469,2.6-8.547-5.6-.114-.49,1.952-1.755,5.651,4.126L94.725,89.8l2.436-2.582,6.218,4.292L99.26,85.458l1.849-2.032,5.4,8.822c.054.558-2.151,2.622-2.439,2.621Z" transform="translate(-41.45 -38.066)" fill="#454849"/>
      <path id="Path_44311" data-name="Path 44311" d="M49.06,198.181a2.225,2.225,0,0,0,.7-.875c.282-.607,1.412-4.967,1.666-5.046.407-.126.263.223.344.435.321.835,1.568,5.486,2.219,5.486h5.031l-4.114,3.3,1.547,5.382c-.185.227-4.2-3.014-5.015-2.959-.76.052-4.666,3.179-4.846,2.959.08-1.362,1.7-4.17,1.343-5.383-.282-.946-3.2-2.235-3.713-3.3Z" transform="translate(-20.18 -87.713)" fill="#454849"/>
      <path id="Path_44312" data-name="Path 44312" d="M360.576,198.2l-4.114,3.3,1.547,5.386c-.176.223-4.134-2.911-4.846-2.959-.8-.054-4.555,3.058-4.819,2.761l1.351-5.183-3.917-3.3h4.637c1.051,0,2.052-5.073,2.762-5.921.321.005,1.487,5.5,2.368,5.921Z" transform="translate(-157.772 -87.735)" fill="#454849"/>
      <path id="Path_44313" data-name="Path 44313" d="M245.571,62.313a4.642,4.642,0,0,0,.841-2.019,38.466,38.466,0,0,0,1.131-4.3l2.567.695-2.955,9.88-3.264-.906-1.579-7.3-1.778,6.124-2.381-.593,2.681-9.873,3.536,1.1Z" transform="translate(-108.665 -24.651)" fill="#454849"/>
      <path id="Path_44314" data-name="Path 44314" d="M305.381,99.986l4.832-4.731c.365.539,1.969,1.477,1.589,2.169l-7.141,6.889-2.442-2.457,2.171-7-4.635,4.535-1.87-1.871,7.4-7.2,2.457,2.651Z" transform="translate(-135.92 -41.212)" fill="#454849"/>
      <path id="Path_44315" data-name="Path 44315" d="M80.753,113.981c2.323-.127,5.806,2.221,6.137,4.609.842,6.09-7,8.891-10.37,3.267-1.819-3.038.86-7.692,4.233-7.876m-.6,2.754a2.409,2.409,0,0,0-1.579,1.2c-1.32,3.255,5.331,6.215,5.933,2.563.29-1.758-2.742-3.956-4.354-3.761" transform="translate(-34.647 -52.005)" fill="#454849"/>
      <path id="Path_44316" data-name="Path 44316" d="M328.917,123.587c.246-3.431-4.723-6.637-6.792-2.943-.565,1.01-.369,3.229.567,3.949.6.458,1.193-.619,1.875-.62l-.76-1.471,1.844-1.094,2.26,3.463-4.817,3.22c-3.233-2.635-5.994-7.828-1.663-10.9,3.83-2.72,7.423.106,9.1,3.7.982,2.106.285,1.926-1.614,2.7" transform="translate(-145.646 -52.976)" fill="#454849"/>
      <path id="Path_44317" data-name="Path 44317" d="M149.756,335.628l.842,7.053,2.171-5.919,2.362.8-3.462,9.257-2.954-1.17-.882-7.11-2.18,5.911-2.351-.893,3.249-8.771c.394-.5,2.628.622,3.205.842" transform="translate(-65.386 -152.699)" fill="#454849"/>
      <path id="Path_44318" data-name="Path 44318" d="M191.762,55.326c.612.4,2.774,4.926,2.564,5.125l-2.937.175c-.636-1.639-1.07-4.283-3.376-3.723l.4,4.143-2.763.2-.988-10.459c2.834.08,9.086-2.087,8.489,2.866a1.94,1.94,0,0,1-1.385,1.676m-3.947-.595c3.625.353,3.5-2.823-.2-2.17Z" transform="translate(-84.256 -22.987)" fill="#454849"/>
      <path id="Path_44319" data-name="Path 44319" d="M150.314,64.558c.713-.017,1.209.7,1.68,1.183.331.34,2.268,2.49,2.069,2.763l-2.469.932c-1.422-1.119-2.244-3.685-4.436-2.7l1.4,3.817-2.578,1.113-3.726-9.549c.048-.207.265-.267.426-.358a36.689,36.689,0,0,1,4.666-1.844c3.089-.629,4.98,1.943,2.973,4.355Zm-3.942.4c3.444-.968,2.44-3.773-.792-2.167Z" transform="translate(-64.907 -27.293)" fill="#454849"/>
      <path id="Path_44320" data-name="Path 44320" d="M269.127,68.995l4.441-1.964,2.857,1.376c.095.513-.076.3-.279.409-1.6.823-3.556,1.473-5.229,2.17l.969,6.889-3.048-1.587-.7-5.515L265.875,74.7,263.4,73.53l4.928-9.183,2.357,1.226Z" transform="translate(-120.187 -29.36)" fill="#454849"/>
      <path id="Path_44321" data-name="Path 44321" d="M217.6,50.583l2.986,10.627L217.441,61c-.131-.629-.176-2.223-.9-2.355-.316-.057-3.137-.248-3.324-.2l-.952,1.948-2.928-.167,4.635-9.668c.639-.562,2.749.038,3.625.028m-1.158,6.089c-.253-1-.308-2.276-.609-3.236-.069-.22-.069-.477-.374-.511l-1.383,3.55Z" transform="translate(-95.516 -22.957)" fill="#454849"/>
      <path id="Path_44322" data-name="Path 44322" d="M294.147,318.609c1.724.425,3.06,1.739,4.534,2.666l-2.1,1.655c-.661.117-3.63-3.5-4.531-1.151l2.107,3.036-2.087,1.482-5.832-7.965c1.694-.879,3.879-3.6,5.837-3.562a2.541,2.541,0,0,1,2.069,3.839m-2.2-1.148c-2.206-.043-3.057.885-1.243,2.532,1.034-.526,2.065-1.365,1.243-2.532" transform="translate(-130.606 -143.624)" fill="#454849"/>
      <path id="Path_44323" data-name="Path 44323" d="M211.043,354.987c0,.049.159.117.152.2l-.274.273-2.442.219-.59-9.862,4.84-.4c3.339-.005,4.407,3.27,1.669,5.133.337-.008.474.2.638.45.709,1.077,1.068,2.827,1.732,3.991l-2.773.207c-.753-1.391-.792-3.944-2.951-3.658.005,1.149-.008,2.3,0,3.453m-.2-5.425c1.271.17,2.893-.075,2.189-1.7-.413-.519-1.749-.192-2.386-.276Z" transform="translate(-94.856 -157.605)" fill="#454849"/>
      <path id="Path_44324" data-name="Path 44324" d="M187.758,349.826c1.061,1.48,1.011,3.438,1.577,5.126l-2.683-.373c-.808-1.459-.1-3.992-2.354-4.128-.448.073-.376,3.181-.577,3.723l-2.65-.226.965-9.65c.215-.217,5.451.5,6.058.751a2.491,2.491,0,0,1-.334,4.777m-1.035-1.431c1.125-1.124-1.167-2.171-2.117-1.92l-.2,2.166c.583-.053,1.909.166,2.321-.245" transform="translate(-82.619 -157.079)" fill="#454849"/>
      <path id="Path_44325" data-name="Path 44325" d="M133.769,333.847c.383,1.637-.3,3.443-.4,5.129l-2.478-1.183c-.066-1.458,1.364-4.01-.6-4.715-.361-.129-.229.078-.314.229a18.107,18.107,0,0,0-1.538,3.1l-2.559-1.282,4.537-8.583c.241-.183,4.939,2.475,5.331,2.854a2.577,2.577,0,0,1-1.98,4.448m-.256-3.5a9.855,9.855,0,0,0-1.425-.825l-1.042,1.659c.9,1.495,3.862.862,2.467-.835" transform="translate(-57.437 -148.993)" fill="#454849"/>
      <path id="Path_44326" data-name="Path 44326" d="M319.37,293.089l-1.571,2.238,3.132,2.589-1.694,2.06-7.567-5.909,1.494-2.181,3.237,2.184,1.568-2.241-2.7-2.392,1.628-2.071,7.56,6.21-1.641,2.07Z" transform="translate(-142.209 -131.12)" fill="#454849"/>
      <path id="Path_44327" data-name="Path 44327" d="M123.075,73.611l1.105,1.759,3.534-2.144,1.066,1.64-3.524,2.39,1.27,1.857,3.759-2.354.264.029c.073.551,1.074,1.228.725,1.759l-6.228,3.661-5.307-8.66,6-3.849,1.063,1.477c.036.38-2.566,1.856-3.075,2.205a1.364,1.364,0,0,1-.654.231" transform="translate(-54.635 -31.802)" fill="#454849"/>
      <path id="Path_44328" data-name="Path 44328" d="M181.063,101.565c3.106-.495,5.667.776,6.116,4.048.568,4.142-1.554,7.128-5.95,6.542-5.156-.687-5.213-9.786-.166-10.59m.792,1.771c-3.005.434-3.036,7.183.534,7.069,3.532-.112,3.489-7.65-.534-7.069" transform="translate(-80.908 -46.295)" fill="#454849"/>
      <path id="Path_44329" data-name="Path 44329" d="M122.58,320.787c.107.181-.006.384-.08.561a42.227,42.227,0,0,1-3.169,4.53c-1.559,1.846-2.737,2.434-5.088,1.372a5.833,5.833,0,0,1-2.753-2.771c-.9-3.092,2.9-5.822,4.015-8.45l2.174,1.67c-.622,1.561-4.2,5.081-3.719,6.672a1.65,1.65,0,0,0,1.993.888c1.371-.316,3.287-4.584,4.484-5.6Z" transform="translate(-50.809 -144.198)" fill="#454849"/>
      <path id="Path_44330" data-name="Path 44330" d="M284.8,332.745l-2.3,1.149-1.646-1.259-3.256,1.68.272,2.351-2.337,1.211-1.558-10.324,2.81-1.693Zm-5.722-1.381c.294-.4-2.211-2.221-2.563-2.562l.592,3.551Z" transform="translate(-125.008 -148.685)" fill="#454849"/>
      <path id="Path_44331" data-name="Path 44331" d="M69.307,145.05l3.143,1.2-1.069,2.739-9.373-3.945c.775-2.927,2.81-8.471,6.774-5.884,2.14,1.4,1.283,3.94.525,5.885m-1.776-.984c1.329-2.767-1.985-4.088-2.481-.983Z" transform="translate(-28.294 -63.193)" fill="#454849"/>
      <path id="Path_44332" data-name="Path 44332" d="M337.67,148.22a3.019,3.019,0,0,1-1.781,1.77c-3.747,1.384-5.157-3.073-5.719-5.9l2.37-.705c-.4,1.005.869,5.406,2.263,3.741,1.054-1.259-1.033-3.978,1.3-5.6,3.333-2.316,5.767,2.326,6.049,5.128l-2.115.876c.1-.924-.631-3.641-1.688-3.755-.235-.026-.681.111-.681.3a30.7,30.7,0,0,1,0,4.144" transform="translate(-150.65 -64.289)" fill="#454849"/>
      <path id="Path_44333" data-name="Path 44333" d="M231.846,342.88l.193,1.769-4.118.819.18,1.75,4.139-.589.2,1.975-3.948.593.4,2.17,4.212-.806.437,1.8-7,1.153-1.6-9.645Z" transform="translate(-102.636 -156.45)" fill="#454849"/>
      <path id="Path_44334" data-name="Path 44334" d="M262.169,334.514l-3.941,1.692.589,1.666c.183.168,3.064-1.4,3.653-1.4.417,0,1,1.653.883,1.79l-3.466,1.379.509,1.976,4.218-1.592.712,1.787-6.7,2.563-3.549-8.949,6.046-2.661c.567-.055.719,1.362,1.048,1.746" transform="translate(-116.387 -151.835)" fill="#454849"/>
      <path id="Path_44335" data-name="Path 44335" d="M172.852,342.289l-.391,1.967-4.019-1-.435,1.8,3.866.979-.4,1.769-4.138-.786-.363,1.722c-.058.263.113.32.3.408.637.294,3.857.69,4.005.831l-.4,1.973-6.9-1.586,2.167-9.664Z" transform="translate(-74.823 -155.456)" fill="#454849"/>
      <path id="Path_44336" data-name="Path 44336" d="M246.8,338.93l.416,2.148c-.88-.092-3.925,0-3.524,1.439.232.84,2.174.473,2.979.587a2.819,2.819,0,0,1,2.67,2.463c.532,3.313-3.734,4.106-6.147,4.377-.436-.129-.526-1.891-.514-2.354.937.542,4.321-.021,3.918-1.439-.417-1.467-4.879.434-5.61-2.69-.767-3.28,3.3-4.474,5.812-4.531" transform="translate(-109.914 -154.648)" fill="#454849"/>
      <path id="Path_44337" data-name="Path 44337" d="M201.543,108.438v3.749h-2.368v-10.26h4.637c1.378,0,2.639,1.75,2.67,3.067.064,2.783-2.544,3.763-4.939,3.444m0-1.775c3.46.439,3.577-3.517,0-2.959Z" transform="translate(-90.88 -46.508)" fill="#454849"/>
      <path id="Path_44338" data-name="Path 44338" d="M308.3,303c-7.441,2.689.054,10.812,3.658,3.555L313.406,308c-1.955,3.6-6.666,5.963-9.722,2.089-2.7-3.424-.107-7.486,3.442-8.776Z" transform="translate(-138.055 -137.482)" fill="#454849"/>
      <path id="Path_44339" data-name="Path 44339" d="M242.1,101.927V103.7h-3.749v1.974c2.98-.54,5.312,1.512,4.242,4.535-.753,2.125-3.163,2.381-5.107,2.15-1.744-.207-1.845-.632-1.7-2.346.193-.2,4.629,1.91,4.748-.892.113-2.654-3.282-.957-4.532-1.892l.376-5.306Z" transform="translate(-107.564 -46.507)" fill="#454849"/>
      <path id="Path_44340" data-name="Path 44340" d="M223.694,110.2h4.538v1.776h-7.3a4.493,4.493,0,0,1,.1-1.575c.311-.689,3.167-3.124,3.844-4.049,2.087-2.85-.431-3.983-2.7-2.1l-1.2-1.26c1.947-2.385,7.208-2.1,6.836,1.755-.225,2.335-2.857,3.683-4.122,5.449" transform="translate(-100.798 -46.3)" fill="#454849"/>
      <path id="Path_44341" data-name="Path 44341" d="M233.358,286.765c0-.077-.366-.285.122-.47l1.26-.025v8.486c-.675-.059-1.851.2-2.364-.3-.673-.658-2.4-5.683-3.261-5.613-.632.532-.113,1.366-.089,2.058.043,1.282-.049,2.576-.008,3.857l-1.395-.086c-.526-.364,0-2.706.021-3.36.045-1.61-.049-3.233-.009-4.843,2.56-.575,3.187,1.57,3.9,3.486l1.818,2.632c-.012-1.937.016-3.881,0-5.821" transform="translate(-103.755 -130.62)" fill="#454849"/>
      <path id="Path_44342" data-name="Path 44342" d="M103.745,306.222c.194-.137.986.526,1.18.685.573.469,4.577,4.008,4.522,4.317l-1.077,1.309-1.678-1.292-.387,0-5.033,5.632-1.858-1.842,4.894-5.589c.165-.615-1.292-1.142-1.542-1.766Z" transform="translate(-45.361 -139.715)" fill="#454849"/>
      <path id="Path_44343" data-name="Path 44343" d="M168.965,101.927V103.7H166.2v8.484h-2.368V103.7h-2.762v-1.776Z" transform="translate(-73.495 -46.508)" fill="#454849"/>
      <path id="Path_44344" data-name="Path 44344" d="M214.427,286.348c3.28-.176,4.053,3.8,3.35,6.325-.859,3.083-7.53,3.045-7.575-1.5-.028-2.821,1.326-4.668,4.225-4.824m1.562,2.18c-.627-.777-3.074-.823-3.6-.057a8.932,8.932,0,0,0-.2,3.662c.872,2.241,4.333,1.364,4.265-1.587a6.1,6.1,0,0,0-.466-2.019" transform="translate(-95.912 -130.653)" fill="#454849"/>
      <path id="Path_44345" data-name="Path 44345" d="M57.971,305.505l1.38,2.558-8.477,5.925c-.011-.6-1.839-2.355-1.572-2.746Z" transform="translate(-22.484 -139.396)" fill="#454849"/>
      <path id="Path_44346" data-name="Path 44346" d="M44.166,284.321,35.2,288.856l-1.452-2.484,8.99-4.773c.44-.041,1.594,2.491,1.43,2.722" transform="translate(-15.398 -128.488)" fill="#454849"/>
      <path id="Path_44347" data-name="Path 44347" d="M252.308,19.941c.541.155,2.826.452,2.836,1.058l-2.753,9.5c-.215.15-2.739-.472-2.763-.986Z" transform="translate(-113.9 -9.099)" fill="#454849"/>
      <path id="Path_44348" data-name="Path 44348" d="M271.091,26.113c.481.289,2.871.851,2.815,1.427l-3.918,9.129-2.372-.805-.167-.354Z" transform="translate(-122.032 -11.915)" fill="#454849"/>
      <path id="Path_44349" data-name="Path 44349" d="M22.341,149.5l9.558,2.843.166.353-.657,2.314-.548.159-9.227-2.631c-.407-.319.467-2.976.708-3.039" transform="translate(-9.822 -68.215)" fill="#454849"/>
      <path id="Path_44350" data-name="Path 44350" d="M283.2,359.575l4.534,8.968-2.483,1.452-4.809-9.137c.427-.272,2.425-1.519,2.759-1.282" transform="translate(-127.958 -164.054)" fill="#454849"/>
      <path id="Path_44351" data-name="Path 44351" d="M141.012,367.586c.491.313,2.453.613,2.415,1.228l-3.434,9.406c-.478-.3-2.879-.856-2.822-1.437Z" transform="translate(-62.588 -167.723)" fill="#454849"/>
      <path id="Path_44352" data-name="Path 44352" d="M30.568,279.924l-1.176-2.49.17-.356,9.018-3.825c.518-.049,1.086,1.857,1.418,2.28l-.17.356Z" transform="translate(-13.411 -124.681)" fill="#454849"/>
      <path id="Path_44353" data-name="Path 44353" d="M159.414,373.391l2.3.42.33.437-2.2,9.447c-.383.778-2.223-.341-2.922-.352l-.188-.379Z" transform="translate(-71.513 -170.372)" fill="#454849"/>
      <path id="Path_44354" data-name="Path 44354" d="M215.727,24.369h-2.762l.394-10.26h2.861l.264.327Z" transform="translate(-97.172 -6.438)" fill="#454849"/>
      <path id="Path_44355" data-name="Path 44355" d="M238.672,375.584c.357-.04.667-.138.8.295l2,9.451-.328.434c-.712-.067-2.439.863-2.781.1l-1.82-9.434c.034-.483,1.621-.788,2.131-.844" transform="translate(-107.929 -171.355)" fill="#454849"/>
      <path id="Path_44356" data-name="Path 44356" d="M165.222,17.787c.354-.033.66-.151.791.291l1.821,9.434c-.005.49-2.142.916-2.474.891-.242-.017-.4-.09-.452-.341l-2-9.451.327-.434c.66-.015,1.37-.332,1.991-.39" transform="translate(-74.33 -8.098)" fill="#454849"/>
      <path id="Path_44357" data-name="Path 44357" d="M108.717,351.911l-5.122,8.862-2.759-1.384,5.344-8.865Z" transform="translate(-46.009 -159.938)" fill="#454849"/>
      <path id="Path_44358" data-name="Path 44358" d="M291.358,355.22l5.112,8.587-2.678,1.644-5.009-8.935Z" transform="translate(-131.767 -162.081)" fill="#454849"/>
      <path id="Path_44359" data-name="Path 44359" d="M374.864,129.552c.373-.034,1.387,2.362,1.417,2.676a.315.315,0,0,1-.165.358L367.1,136.21c-.176.053-.254-.048-.358-.166-.243-.274-.959-2.233-.693-2.47Z" transform="translate(-166.993 -59.112)" fill="#454849"/>
      <path id="Path_44360" data-name="Path 44360" d="M63.756,313.132l1.585,2.259-8.086,6.418-1.778-2.56Z" transform="translate(-25.313 -142.876)" fill="#454849"/>
      <path id="Path_44361" data-name="Path 44361" d="M168.972,375.568l2.3.419.342.452L170,385.876c-.058.249-.218.321-.456.337-.443.03-2.638-.391-2.672-.89Z" transform="translate(-76.139 -171.365)" fill="#454849"/>
      <path id="Path_44362" data-name="Path 44362" d="M131.968,363.957c.453.215,2.468.942,2.422,1.427l-3.918,9.129-.263.06c-.439-.4-2.536-.815-2.479-1.421Z" transform="translate(-58.28 -166.067)" fill="#454849"/>
      <path id="Path_44363" data-name="Path 44363" d="M308.516,45.984l-5.54,8.668-2.539-1.386,5.333-8.655Z" transform="translate(-137.084 -20.355)" fill="#454849"/>
      <path id="Path_44364" data-name="Path 44364" d="M371.642,255.121,381,257.953l.166.353-.859,2.516-.5.113-9.073-3.184c-.4-.3.558-2.547.907-2.629" transform="translate(-169.117 -116.407)" fill="#454849"/>
      <path id="Path_44365" data-name="Path 44365" d="M175.819,15.952,177.23,25.7c-.078.719-1.868.685-2.455.878l-2.1-9.755.337-.456Z" transform="translate(-78.789 -7.279)" fill="#454849"/>
      <path id="Path_44366" data-name="Path 44366" d="M69.629,320.408a8.823,8.823,0,0,1,1.858,1.657c.119.173.293.275.1.5l-7.608,6.617-1.975-2.176Z" transform="translate(-28.292 -146.196)" fill="#454849"/>
      <path id="Path_44367" data-name="Path 44367" d="M46.863,116.655l-1.3,2.574L36.6,114.4l1.294-2.682Z" transform="translate(-16.701 -50.973)" fill="#454849"/>
      <path id="Path_44368" data-name="Path 44368" d="M25.386,139.691l9.363,3.44c.264.234-.456,2.208-.7,2.476-.391.437-8.4-2.585-9.568-2.872l-.175-.355Z" transform="translate(-11.093 -63.738)" fill="#454849"/>
      <path id="Path_44369" data-name="Path 44369" d="M33.144,120.8l9.188,4.535-1.1,2.485-9.194-4.254Z" transform="translate(-14.619 -55.118)" fill="#454849"/>
      <path id="Path_44370" data-name="Path 44370" d="M145.639,22.863l.268.059,2.948,9.5c-.011.5-2.341,1.279-2.659.874a8.667,8.667,0,0,1-.444-1.136c-1.05-2.636-1.786-5.555-2.8-8.223Z" transform="translate(-65.226 -10.432)" fill="#454849"/>
      <path id="Path_44371" data-name="Path 44371" d="M27.235,237.686a1.185,1.185,0,0,1,.5-.034c.422.138.763,2.549.331,2.856l-9.211,1.857c-.842.269-1.172-2.861-.869-3.059,3.03-.279,6.255-1.362,9.245-1.619" transform="translate(-8.158 -108.427)" fill="#454849"/>
      <path id="Path_44372" data-name="Path 44372" d="M68.1,71.108,75.382,78c.261.506-1.39,1.6-1.69,2.082l-7.608-6.618c-.191-.229-.017-.331.1-.5A19.122,19.122,0,0,1,68.1,71.108" transform="translate(-30.114 -32.445)" fill="#454849"/>
      <path id="Path_44373" data-name="Path 44373" d="M17.782,169.449l9.55,1.852c.356.254.217,3.133-.669,2.858L17.253,172.5c-.377-.246.2-2.947.529-3.054" transform="translate(-7.816 -77.317)" fill="#454849"/>
      <path id="Path_44374" data-name="Path 44374" d="M99.967,44.96l5.328,8.65-2.09,1.382-5.963-8.2c-.063-.254.783-.727,1.021-.9.257-.185,1.5-1.079,1.7-.931" transform="translate(-44.368 -20.507)" fill="#454849"/>
      <path id="Path_44375" data-name="Path 44375" d="M376.458,236.949,386.2,238.8c.31.211-.13,2.616-.3,2.874-.322.494-8.589-1.783-9.778-1.872-.329-.229-.035-2.74.331-2.853" transform="translate(-171.555 -108.116)" fill="#454849"/>
      <path id="Path_44376" data-name="Path 44376" d="M359.842,302.132a16.262,16.262,0,0,1-1.326,2.492c-.1.173.07.335-.312.229l-8.388-5.758c.336-.7.72-1.384,1.116-2.051.1-.161-.078-.341.312-.233Z" transform="translate(-159.615 -135.415)" fill="#454849"/>
      <path id="Path_44377" data-name="Path 44377" d="M365.133,293.736a8.65,8.65,0,0,1-.955,1.9c-.154.247-.376.9-.683.83L354.9,291.1a21.13,21.13,0,0,1,1.1-2.06c.092-.134,0-.344.316-.218Z" transform="translate(-161.935 -131.768)" fill="#454849"/>
      <path id="Path_44378" data-name="Path 44378" d="M90.321,295.379l.267.068c.2.7,1.674,1.389,1.29,2.086l-5.785,4.681c-2.068.992-4.282-.776-4.7-2.712l1.406-1.176c.549-.124.526,1.446,1.75,1.37,1.385-.085,4.364-3.6,5.769-4.318" transform="translate(-37.14 -134.776)" fill="#454849"/>
      <path id="Path_44379" data-name="Path 44379" d="M300.119,40.546,295,49.408l-2.562-1.186,4.935-9.074Z" transform="translate(-133.433 -17.862)" fill="#454849"/>
      <path id="Path_44380" data-name="Path 44380" d="M230.211,377.4l1.611,9.739c-.109.758-2.183.644-2.839.7l-1.522-9.768c.107-.761,2.052-.533,2.75-.674" transform="translate(-103.786 -172.2)" fill="#454849"/>
      <path id="Path_44381" data-name="Path 44381" d="M335.1,333.549c-.848-.05-1.658,2.254-2.365,1.89l-6.82-7.018c-.132-.149-.078-.239,0-.391.159-.31,1.756-1.858,2.082-1.69Z" transform="translate(-148.672 -148.897)" fill="#454849"/>
      <path id="Path_44382" data-name="Path 44382" d="M374.349,246.018l9.549,2.451.188.378-.682,2.486-.544.163-9.225-2.828c-.412-.313.556-2.6.714-2.65" transform="translate(-170.437 -112.254)" fill="#454849"/>
      <path id="Path_44383" data-name="Path 44383" d="M108.69,39.506,113.6,48.32c.1.382-.042.206-.225.306-.68.375-1.368.741-2.051,1.111l-5.366-8.593c-.074-.307.583-.528.83-.683a8.649,8.649,0,0,1,1.9-.955" transform="translate(-48.343 -18.023)" fill="#454849"/>
      <path id="Path_44384" data-name="Path 44384" d="M235.977,16.332l-1.667,9.877c-.268.393-3.362.266-2.857-.869l1.58-9.388Z" transform="translate(-105.583 -7.278)" fill="#454849"/>
      <path id="Path_44385" data-name="Path 44385" d="M100.768,346.834,95.05,355.3,92.5,353.715l5.738-8.264Z" transform="translate(-42.205 -157.623)" fill="#454849"/>
      <path id="Path_44386" data-name="Path 44386" d="M155.462,19.967l.412.309,2.4,9.447c-.011.533-2.443,1.142-2.721.539l-2.76-9.084c.012-.719,2.145-.819,2.667-1.211" transform="translate(-69.718 -9.111)" fill="#454849"/>
      <path id="Path_44387" data-name="Path 44387" d="M26.329,228.591c-.076.553.643,2.393.214,2.663l-9.41,1.658c-.931.312-1-2.988-.743-3.168Z" transform="translate(-7.42 -104.302)" fill="#454849"/>
      <path id="Path_44388" data-name="Path 44388" d="M361.346,102.311l1.4,2.748-8.876,5.133-1.177-2.548Z" transform="translate(-160.927 -46.683)" fill="#454849"/>
      <path id="Path_44389" data-name="Path 44389" d="M25.976,180.985l-.171,2.733-10.272-1.313.239-2.506.471-.334Z" transform="translate(-7.087 -81.933)" fill="#454849"/>
      <path id="Path_44390" data-name="Path 44390" d="M388.489,182.144l-9.732,1.22c-.855-.143-.356-1.913-.713-2.644l9.778-1.518c.674-.028.812,2.708.667,2.942" transform="translate(-172.495 -81.767)" fill="#454849"/>
      <path id="Path_44391" data-name="Path 44391" d="M368.383,263.8l9.362,3.435c.25.162.163.274.11.495-.1.421-.946,2.382-1.36,2.342l-9.021-3.624c-.378-.266.738-2.6.91-2.647" transform="translate(-167.636 -120.369)" fill="#454849"/>
      <path id="Path_44392" data-name="Path 44392" d="M388.147,229.237l-.379,2.944L377.7,230.47c.025-.607-.047-2.564.7-2.642Z" transform="translate(-172.337 -103.954)" fill="#454849"/>
      <path id="Path_44393" data-name="Path 44393" d="M226.369,15.052,225.208,25.2c-.146.206-2.63-.029-2.756-.405l.979-9.915Z" transform="translate(-101.501 -6.787)" fill="#454849"/>
      <path id="Path_44394" data-name="Path 44394" d="M76.771,326.918l1.775,2.065-7.169,7.191-2.086-2.028Z" transform="translate(-31.616 -149.167)" fill="#454849"/>
      <path id="Path_44395" data-name="Path 44395" d="M47.479,289.922l1.2,2.551L39.818,297.4l-1.4-2.749Z" transform="translate(-17.53 -132.286)" fill="#454849"/>
      <path id="Path_44396" data-name="Path 44396" d="M62.818,92.463l-1.584,2.361-.263-.02-7.995-6.165L54.8,86.365Z" transform="translate(-24.172 -39.407)" fill="#454849"/>
      <path id="Path_44397" data-name="Path 44397" d="M247.947,373.4a.766.766,0,0,1,.322-.02l2.68,9.574c-.012.5-2.626,1.425-2.913.731l-2.4-9.25.188-.38c.676-.03,1.548-.594,2.125-.656" transform="translate(-112.079 -170.359)" fill="#454849"/>
      <path id="Path_44398" data-name="Path 44398" d="M343.505,77.979c-.04.65,1.89,1.82,1.78,2.262L337.2,86.855l-1.583-2.261Z" transform="translate(-153.136 -35.58)" fill="#454849"/>
      <path id="Path_44399" data-name="Path 44399" d="M25.272,190.749l-.18,2.551-10.262-.394.2-3.156Z" transform="translate(-6.767 -86.579)" fill="#454849"/>
      <path id="Path_44400" data-name="Path 44400" d="M149.824,294.922v-8.287h3.453a8.776,8.776,0,0,1,1.654.714c2.2,1.447,2.072,5.544-.189,6.867a19.428,19.428,0,0,1-1.859.705Zm1.578-7.1v5.031c0,.1-.313.414-.2.69,2.271.3,3.775-.372,3.764-2.861-.009-2.28-1.4-3.129-3.568-2.86" transform="translate(-68.362 -130.786)" fill="#454849"/>
      <path id="Path_44401" data-name="Path 44401" d="M29.395,246.764c.23-.022.388-.083.543.155-.125.607.905,2.159.487,2.47L21.2,252.024c-.82.189-1.445-2.735-1.038-3.031Z" transform="translate(-9.142 -112.583)" fill="#454849"/>
      <path id="Path_44402" data-name="Path 44402" d="M256.846,370.855a.73.73,0,0,1,.32-.018l3.466,9.542c-.037.173-2.915,1.3-3.11.57l-2.763-9.084.158-.349a18.941,18.941,0,0,1,1.93-.661" transform="translate(-116.242 -169.2)" fill="#454849"/>
      <path id="Path_44403" data-name="Path 44403" d="M389.441,189.38l.187,2.952-10.251.6-.176-2.744Z" transform="translate(-173.023 -86.411)" fill="#454849"/>
      <path id="Path_44404" data-name="Path 44404" d="M194.033,24.368l-.506-10.075,2.874-.186.394,10.261Z" transform="translate(-88.303 -6.437)" fill="#454849"/>
      <path id="Path_44405" data-name="Path 44405" d="M29.218,130.259l8.962,3.833c.494.462-.617,2.679-1.052,2.638l-9.021-3.624-.167-.361Z" transform="translate(-12.749 -59.435)" fill="#454849"/>
      <path id="Path_44406" data-name="Path 44406" d="M25.41,221.9l-9.915.979c-.626-.209-.2-2.218-.335-2.81l9.948-.882c.6.2.246,2.142.3,2.713" transform="translate(-6.909 -100.013)" fill="#454849"/>
      <path id="Path_44407" data-name="Path 44407" d="M389.993,209.736l-.2,2.961-10.25-.6.188-2.75Z" transform="translate(-173.18 -95.52)" fill="#454849"/>
      <path id="Path_44408" data-name="Path 44408" d="M19.8,159.288l9.549,2.451.185.377-.483,2.094-9.971-1.872c-.409-.268.455-2.969.72-3.05" transform="translate(-8.659 -72.68)" fill="#454849"/>
      <path id="Path_44409" data-name="Path 44409" d="M324.408,58.346l-6.614,7.889-1.983-1.577,6.139-8.092Z" transform="translate(-144.099 -25.81)" fill="#454849"/>
      <path id="Path_44410" data-name="Path 44410" d="M73.258,65.646c.732.025,1.783-2.018,2.371-1.695l6.617,7.609c-.46.279-1.571,1.949-2.08,1.69Z" transform="translate(-33.426 -29.164)" fill="#454849"/>
      <path id="Path_44411" data-name="Path 44411" d="M378.432,139.362l.259.052a1.39,1.39,0,0,1,.3.508c.194.389.809,2.029.493,2.265l-9.072,3.184c-.52.353-1.337-2-1.36-2.23a.316.316,0,0,1,.166-.358Z" transform="translate(-168.387 -63.588)" fill="#454849"/>
      <path id="Path_44412" data-name="Path 44412" d="M379.889,199.93l9.579-.4.595.194.088,2.776-10.261.2Z" transform="translate(-173.336 -91.04)" fill="#454849"/>
      <path id="Path_44413" data-name="Path 44413" d="M331.074,79.641c.014-.733-1.8-1.576-1.5-2.168l6.714-6.919c.17-.193.266-.218.5-.1.112.058,1.676,1.616,1.789,1.782s.281.267.1.5Z" transform="translate(-150.365 -32.115)" fill="#454849"/>
      <path id="Path_44414" data-name="Path 44414" d="M328,340.457l-2.459,1.78-6.614-7.889c.735.012,1.572-1.8,2.167-1.495Z" transform="translate(-145.521 -151.86)" fill="#454849"/>
      <path id="Path_44415" data-name="Path 44415" d="M384.079,158.938a.813.813,0,0,1,.318-.022l.279.323c-.055.582.738,2.394.244,2.728-1.212.094-9.427,2.366-9.775,1.871-.059-.084-.536-1.7-.6-1.973-.059-.244-.178-.3.111-.495Z" transform="translate(-170.863 -72.505)" fill="#454849"/>
      <path id="Path_44416" data-name="Path 44416" d="M348.192,318.167l-.092.388-1.768,2.162-7.794-6.585,1.856-2.081Z" transform="translate(-154.469 -142.383)" fill="#454849"/>
      <path id="Path_44417" data-name="Path 44417" d="M52.538,297.9l1.386,2.539-8.65,5.328-1.391-2.533Z" transform="translate(-20.023 -135.928)" fill="#454849"/>
      <path id="Path_44418" data-name="Path 44418" d="M92.824,341.2,86.7,349.28,84.145,347.7l6.418-8.087Z" transform="translate(-38.394 -154.96)" fill="#454849"/>
      <path id="Path_44419" data-name="Path 44419" d="M35.215,264.552l.353.165c-.01.575,1.13,2.094.7,2.471L26.9,270.824l-.211-.182c.1-.63-1.125-2.288-.7-2.666Z" transform="translate(-11.819 -120.71)" fill="#454849"/>
      <path id="Path_44420" data-name="Path 44420" d="M126.746,30.116l4.016,9.191c.051.533-1.844,1.049-2.248,1.422L124.1,31.735c-.051-.543,2.2-1.221,2.644-1.619" transform="translate(-56.625 -13.741)" fill="#454849"/>
      <path id="Path_44421" data-name="Path 44421" d="M318.167,348.561l-6.108-7.818,1.872-1.84,6.779,7.617c.065.37-2.327,2.187-2.543,2.041" transform="translate(-142.387 -154.635)" fill="#454849"/>
      <path id="Path_44422" data-name="Path 44422" d="M61.372,78.367l7.484,6.689c.25.455-1.3,1.553-1.489,2.09L59.474,80.8Z" transform="translate(-27.137 -35.757)" fill="#454849"/>
      <path id="Path_44423" data-name="Path 44423" d="M261.993,22.845c.526.086,2.64.686,2.607,1.229l-3.434,9.406c-.489-.326-2.461-.618-2.423-1.237Z" transform="translate(-118.06 -10.424)" fill="#454849"/>
      <path id="Path_44424" data-name="Path 44424" d="M91.437,50.769l5.905,8.21-2.075,1.63-6.365-8,2.148-1.75Z" transform="translate(-40.564 -23.165)" fill="#454849"/>
      <path id="Path_44425" data-name="Path 44425" d="M51.76,108.353a11.243,11.243,0,0,1-1.128,2.294c-.1.185.077.325-.306.224l-8.59-5.363c.416-.719.7-1.527,1.112-2.247.1-.17-.07-.337.312-.229Z" transform="translate(-19.044 -46.996)" fill="#454849"/>
      <path id="Path_44426" data-name="Path 44426" d="M118.637,369.263l4.523-9.173,2.485,1.1-4.451,9.194Z" transform="translate(-54.132 -164.303)" fill="#454849"/>
      <path id="Path_44427" data-name="Path 44427" d="M24.708,210.067v2.762l-10.06.393a17.718,17.718,0,0,1-.2-2.959Z" transform="translate(-6.58 -95.85)" fill="#454849"/>
      <path id="Path_44428" data-name="Path 44428" d="M316.519,51.987,310.4,60.265l-.283-.005-2.08-1.378,5.925-8.477Z" transform="translate(-140.553 -22.999)" fill="#454849"/>
      <path id="Path_44429" data-name="Path 44429" d="M265.736,367.605l.263.057,3.72,9.131c.054.6-1.987,1.067-2.454,1.24l-.525-.446-3.279-8.764c-.036-.651,1.837-.819,2.275-1.217" transform="translate(-120.213 -167.732)" fill="#454849"/>
      <path id="Path_44430" data-name="Path 44430" d="M355.7,93.974l1.6,2.545-8.664,5.518-1.393-2.35Z" transform="translate(-158.438 -42.879)" fill="#454849"/>
      <path id="Path_44431" data-name="Path 44431" d="M354.205,310.525l-.177.5-1.665,2.034-8-6.159,1.622-2.086Z" transform="translate(-157.128 -139.082)" fill="#454849"/>
      <path id="Path_44432" data-name="Path 44432" d="M136.021,26.5c.326-.019.372.191.5.419l3.28,8.764c.026.467-2.571,1.722-2.774.791l-3.483-8.761c-.043-.445,2.106-1.192,2.48-1.214" transform="translate(-60.932 -12.093)" fill="#454849"/>
      <path id="Path_44433" data-name="Path 44433" d="M117.042,356.77l-4.738,9.074-2.759-1.186,4.935-9.074Z" transform="translate(-49.983 -162.246)" fill="#454849"/>
      <path id="Path_44434" data-name="Path 44434" d="M387.274,172,377.139,173.6l-.49-2.453,9.755-2.1c.68.047.755,2.32.87,2.949" transform="translate(-171.858 -77.134)" fill="#454849"/>
      <path id="Path_44435" data-name="Path 44435" d="M371.036,120.434l1.162,2.5-.17.356-9.261,4.033-.978-2.094.17-.356Z" transform="translate(-165.078 -54.952)" fill="#454849"/>
      <path id="Path_44436" data-name="Path 44436" d="M349.872,85.6l1.578,2.557-8.279,6.123-1.385-2.261Z" transform="translate(-155.951 -39.058)" fill="#454849"/>
      <path id="Path_44437" data-name="Path 44437" d="M306.784,344.694l5.9,8.014-2.274,1.824-5.969-8.2c-.065-.259.671-.646.9-.818s1.27-.936,1.436-.821" transform="translate(-138.911 -157.272)" fill="#454849"/>
      <path id="Path_44438" data-name="Path 44438" d="M89.755,65.421l-2.1,1.367-.268-.069-6.506-7.8c.64-.039,2.094-1.8,2.567-1.5Z" transform="translate(-36.904 -26.184)" fill="#454849"/>
      <path id="Path_44439" data-name="Path 44439" d="M280.386,30.1c.456.3,2.669.907,2.62,1.429L278.4,40.526c-.406-.374-2.3-.888-2.249-1.423Z" transform="translate(-126.001 -13.736)" fill="#454849"/>
      <path id="Path_44440" data-name="Path 44440" d="M291.822,35.659l-4.738,9.074-2.478-1.179,4.45-9c.407-.262,2.141,1.108,2.766,1.1" transform="translate(-129.861 -15.752)" fill="#454849"/>
      <path id="Path_44441" data-name="Path 44441" d="M119.357,45.074l-4.744-8.969,2.509-1.267,4.777,8.957Z" transform="translate(-52.296 -15.896)" fill="#454849"/>
      <path id="Path_44442" data-name="Path 44442" d="M24.73,200.466v2.762H14.47v-2.959Z" transform="translate(-6.602 -91.379)" fill="#454849"/>
      <path id="Path_44443" data-name="Path 44443" d="M364.9,272.533l8.954,3.823c.313.284-.6,2.372-.893,2.664-.175.172-.247.253-.495.115l-8.832-4.352Z" transform="translate(-165.922 -124.352)" fill="#454849"/>
      <path id="Path_44444" data-name="Path 44444" d="M250.341,131.321l1.947.026,1.506,4.712,1.5-4.717,1.954-.02v6.511h-1.184V133.1l-1.6,4.714L253,137.64l-1.472-4.542.2,4.735h-1.382Z" transform="translate(-114.226 -59.919)" fill="#454849"/>
      <path id="Path_44445" data-name="Path 44445" d="M274.441,363.986l.352.16,4.023,8.823c.048.52-1.857,1.086-2.281,1.419-.407.038-.668-.775-.823-1.09-1.284-2.617-2.212-5.494-3.557-8.1-.057-.6,1.839-.987,2.286-1.216" transform="translate(-124.179 -166.08)" fill="#454849"/>
      <path id="Path_44446" data-name="Path 44446" d="M292.146,79.08l2.23,1.668-6.358,8.162-2.1-1.65Z" transform="translate(-130.459 -36.083)" fill="#454849"/>
      <path id="Path_44447" data-name="Path 44447" d="M102.287,131.321l1.947.026,1.506,4.712,1.5-4.717,1.954-.02v6.511h-1.184V133.1l-1.6,4.714-1.465-.171-1.472-4.542.2,4.735h-1.382Z" transform="translate(-46.672 -59.919)" fill="#454849"/>
      <path id="Path_44448" data-name="Path 44448" d="M174.862,131.321l1.947.026,1.506,4.712,1.5-4.717,1.954-.02v6.511h-1.184V133.1l-1.6,4.714-1.465-.171-1.472-4.542.2,4.735h-1.382Z" transform="translate(-79.787 -59.919)" fill="#454849"/>
      <path id="Path_44449" data-name="Path 44449" d="M179.967,387.783l-2.612-.2-.333-.471,1.719-9.77c.639.051,2.315-.038,2.443.7Z" transform="translate(-80.772 -172.174)" fill="#454849"/>
      <path id="Path_44450" data-name="Path 44450" d="M334.1,319.31l7.773,6.608-1.778,2.176-7.608-6.618c-.228-.415,1.346-1.708,1.613-2.166" transform="translate(-151.698 -145.695)" fill="#454849"/>
      <path id="Path_44451" data-name="Path 44451" d="M240.9,27.866,242.773,18c.208-.306,3.3.028,3.029.84l-2.231,9.232-.376.184Z" transform="translate(-109.921 -8.16)" fill="#454849"/>
      <path id="Path_44452" data-name="Path 44452" d="M32.08,255.852c.648-.029.539,1.827,1.016,2.273l-.174.355-9.213,3.029c-.432.027-1.047-1.876-1.16-2.332-.057-.228-.163-.337.115-.495Z" transform="translate(-10.258 -116.74)" fill="#454849"/>
      <path id="Path_44453" data-name="Path 44453" d="M366.443,111.362l1.186,2.76-9.27,4.541c.009-.561-1.243-2.172-.976-2.549Z" transform="translate(-163.051 -50.812)" fill="#454849"/>
      <path id="Path_44454" data-name="Path 44454" d="M389.224,219.586l-.177,2.938-10.272-1.313.21-2.436Z" transform="translate(-172.828 -99.823)" fill="#454849"/>
      <path id="Path_44455" data-name="Path 44455" d="M83.363,333.463,85.4,335.3l-6.78,7.615-2.07-2.037Z" transform="translate(-34.929 -152.153)" fill="#454849"/>
      <path id="Path_44456" data-name="Path 44456" d="M186.148,14.875l.81,9.746c-.156.822-1.728.381-2.438.706L183.21,15.052Z" transform="translate(-83.595 -6.787)" fill="#454849"/>
      <path id="Path_44457" data-name="Path 44457" d="M150.228,370.85c.478.119,2.43.483,2.407,1.027l-2.764,9.084c-.282.65-2.925-.161-2.893-.714Z" transform="translate(-67.064 -169.212)" fill="#454849"/>
      <path id="Path_44458" data-name="Path 44458" d="M368.475,287.932l-9.27-4.541,1.186-2.562,9.187,4.534Z" transform="translate(-163.899 -128.137)" fill="#454849"/>
      <path id="Path_44459" data-name="Path 44459" d="M329.393,63.477l2.233,2.036-7.16,7.215-1.888-1.835Z" transform="translate(-147.187 -28.963)" fill="#454849"/>
      <path id="Path_44460" data-name="Path 44460" d="M206.489,14.109V24.172h-2.762l-.2-10.063Z" transform="translate(-92.867 -6.438)" fill="#454849"/>
      <path id="Path_44461" data-name="Path 44461" d="M381.738,149.164l.35.159c-.01.617,1,2.269.5,2.669l-9.226,2.631c-.781.237-1.2-2.343-.841-2.634Z" transform="translate(-169.914 -68.061)" fill="#454849"/>
      <path id="Path_44462" data-name="Path 44462" d="M57,100.426l-.14.513-1.3,1.811-8.388-5.759a7.675,7.675,0,0,1,.718-1.267c.159-.232.653-1.081.9-1.02Z" transform="translate(-21.526 -43.21)" fill="#454849"/>
      <path id="Path_44463" data-name="Path 44463" d="M299.161,350.159l5.517,8.4-2.271,1.627-5.574-8.588,1.811-1.3Z" transform="translate(-135.439 -159.771)" fill="#454849"/>
      <path id="Path_44464" data-name="Path 44464" d="M170.508,286.446l1.559.017c.39,2.2,1.514,3.966,2.091,6.1.615-.557.472-1.336.642-1.926.206-.718,1.116-4.2,1.56-4.356.319-.109,1.606-.111,1.637.26l-2.947,8.1c-.6.153-1.728.3-2.067-.307Z" transform="translate(-77.8 -130.595)" fill="#454849"/>
      <path id="Path_44465" data-name="Path 44465" d="M204.439,135.836V131.3h1.184v6.511l-1.877-.195-2.562-4.543.1,4.739H199.9V131.3c.469.046,1.027-.083,1.476,0,.928.178,2.154,3.853,3.062,4.534" transform="translate(-91.211 -59.897)" fill="#454849"/>
      <path id="Path_44466" data-name="Path 44466" d="M133.678,135.836V131.3h1.184v6.511l-1.877-.195-2.562-4.543.1,4.739H129.14V131.3c.469.046,1.027-.083,1.476,0,.928.178,2.154,3.853,3.062,4.534" transform="translate(-58.924 -59.897)" fill="#454849"/>
      <path id="Path_44467" data-name="Path 44467" d="M292.256,135.836V131.3h1.184v6.511l-1.877-.195L289,133.072l.1,4.739h-1.382V131.3c.469.046,1.027-.083,1.476,0,.928.178,2.154,3.853,3.062,4.534" transform="translate(-131.281 -59.897)" fill="#454849"/>
      <path id="Path_44468" data-name="Path 44468" d="M193.324,288.282c-.819,1.445,1.918,1.966,2.7,2.44a2.3,2.3,0,0,1-.609,4.1c-1.324.411-4.454.16-3.913-1.842.2-.214,3.771,1.6,3.769-.5,0-1.4-3.189-1.044-3.607-3.137-.328-1.64.641-2.452,2.157-2.631.52-.061,2.862.015,2.994.466l-.483,1.259c-.607-.612-2.586-.9-3.009-.157" transform="translate(-87.352 -130.814)" fill="#454849"/>
      <path id="Path_44469" data-name="Path 44469" d="M238.951,131.331c5.986-1.107,4.927,8.511-.584,6.215-2.339-.975-2.169-5.706.584-6.215m.6,1.178c-1.97.285-1.88,4.339.521,4.1,1.883-.186,1.972-4.462-.521-4.1" transform="translate(-108.02 -59.883)" fill="#454849"/>
      <path id="Path_44470" data-name="Path 44470" d="M158.708,137.3c-2.628,1.188-5.417.616-5.413-2.762,0-3.038,2.827-3.956,5.324-2.866l-.5,1.1c-1.975-.8-3.681.025-3.35,2.339.24,1.676,2.841,2.327,2.555.31h-1.383v-1.185h2.762Z" transform="translate(-69.946 -59.876)" fill="#454849"/>
      <path id="Path_44471" data-name="Path 44471" d="M147.429,137.846l-1.551-.026-.441-1.531-2.371.1-.392,1.441-1.558.018,2.189-6.49,1.856.177Zm-2.368-2.762c.1-.086-.618-2.256-.984-2.366l-.593,2.366Z" transform="translate(-64.389 -59.936)" fill="#454849"/>
      <path id="Path_44472" data-name="Path 44472" d="M280.968,137.846l-1.551-.026-.442-1.531-2.371.1-.392,1.441-1.558.018,2.189-6.49,1.856.177Zm-2.368-2.762c.1-.086-.618-2.256-.984-2.366l-.593,2.366Z" transform="translate(-125.32 -59.936)" fill="#454849"/>
      <path id="Path_44473" data-name="Path 44473" d="M122.753,137.846l-1.551-.026-.441-1.531-2.371.1L118,137.828l-1.558.018,2.189-6.49,1.856.177Zm-2.368-2.762c.1-.086-.618-2.256-.984-2.366l-.593,2.366Z" transform="translate(-53.13 -59.936)" fill="#454849"/>
      <path id="Path_44474" data-name="Path 44474" d="M269,131.275c2.772.557,1.364,5.09-1.678,4.142l0,2.37h-1.382v-6.511c.909.123,2.212-.17,3.058,0m-.148,1.429c-.311-.307-1.109-.242-1.529-.246v1.777c.854.263,2.406-.665,1.529-1.531" transform="translate(-121.346 -59.874)" fill="#454849"/>
      <path id="Path_44475" data-name="Path 44475" d="M194.215,131.321v1.185l-2.37,0v1.383l2.172,0v1.186l-2.175.112,0,1.466,2.37,0v1.185h-3.749v-6.511Z" transform="translate(-86.906 -59.919)" fill="#454849"/>
      <path id="Path_44476" data-name="Path 44476" d="M169.539,131.321v1.185l-2.37,0v1.383l2.172,0v1.186l-2.175.112,0,1.466,2.37,0v1.185H165.79v-6.511Z" transform="translate(-75.647 -59.919)" fill="#454849"/>
      <path id="Path_44477" data-name="Path 44477" d="M222.206,378.443l.985,10.26-1.452-.027-.324-.465-.739-9.48.273-.259Z" transform="translate(-100.691 -172.677)" fill="#454849"/>
      <path id="Path_44478" data-name="Path 44478" d="M189.568,378.443l-.789,10.262H187.2l1-10.25Z" transform="translate(-85.415 -172.677)" fill="#454849"/>
      <path id="Path_44479" data-name="Path 44479" d="M231.224,131.636l-.4,1.182c-1.45-.6-2.966-.636-3.161,1.279-.228,2.246,1.1,2.951,3.071,2.107.759.909.176,1.379-.814,1.526-5.884.876-4.386-8.857,1.3-6.093" transform="translate(-103.198 -59.837)" fill="#454849"/>
      <path id="Path_44480" data-name="Path 44480" d="M185.436,294.574l.169-8.062,1.49-.146c.3.107.272.371.3.631.229,2.438-.359,5.023-.235,7.479-.19.578-1.294.3-1.72.1" transform="translate(-84.611 -130.663)" fill="#454849"/>
      <path id="Path_44481" data-name="Path 44481" d="M301.241,131.284c.124.078,1.1,2.768,1.41,2.532.62-1.44.789-3.031,2.764-2.563-1.155,2.159-2.657,3.873-2.169,6.51h-1.383c.475-2.586-1.1-4.274-2.168-6.415a3.236,3.236,0,0,1,1.546-.065" transform="translate(-136.746 -59.851)" fill="#454849"/>
      <path id="Path_44482" data-name="Path 44482" d="M217.17,131.321v1.185h-1.777v5.327h-1.381V132.5h-1.777v-1.185Z" transform="translate(-96.84 -59.919)" fill="#454849"/>
      <path id="Path_44483" data-name="Path 44483" d="M165.427,294.922v-8.287l1.394.086.157,7.877-.3.3Z" transform="translate(-75.482 -130.787)" fill="#454849"/>
      <path id="Path_44484" data-name="Path 44484" d="M250.341,294.922v-8.287l1.394.086.157,7.877-.3.3Z" transform="translate(-114.226 -130.787)" fill="#454849"/>
      <path id="Path_44485" data-name="Path 44485" d="M205.449,286.47v8.287h-1.382c-.08-2.83-.3-5.647-.2-8.484Z" transform="translate(-93.01 -130.622)" fill="#454849"/>
      <path id="Path_44486" data-name="Path 44486" d="M293.186,165.443c4.418-.919,4.758,5.744.346,5.287a2.7,2.7,0,0,1-.346-5.287m2.027,4.1c-.548.526-.948-1.114-1.285-1.183-.717-.038-.408,1.1-.491,1.185l-.592,0v-2.762c.614.08,1.6-.213,2.078.2.5.428-.077.857-.059,1.249.012.272.529,1.145.349,1.317,2.415-2.062-1.319-5.143-2.961-2.665a2,2,0,0,0,2.961,2.665" transform="translate(-132.856 -75.449)" fill="#454849"/>
      <path id="Path_44487" data-name="Path 44487" d="M209.891,257.271a1.315,1.315,0,1,1-.2,2.488,1.342,1.342,0,0,1,.2-2.488" transform="translate(-95.334 -117.369)" fill="#454849"/>
      <path id="Path_44488" data-name="Path 44488" d="M264.7,149.859a1.33,1.33,0,0,1,.9,2.488,1.33,1.33,0,1,1-.9-2.488" transform="translate(-120.348 -68.36)" fill="#454849"/>
      <path id="Path_44489" data-name="Path 44489" d="M268.677,257.271a1.315,1.315,0,1,1-.2,2.488,1.342,1.342,0,0,1,.2-2.488" transform="translate(-122.157 -117.369)" fill="#454849"/>
      <path id="Path_44490" data-name="Path 44490" d="M127.53,257.272a1.33,1.33,0,0,1,.9,2.488,1.33,1.33,0,1,1-.9-2.488" transform="translate(-57.761 -117.371)" fill="#454849"/>
      <path id="Path_44491" data-name="Path 44491" d="M327.485,257.27c2.265-.468,2.129,3.207-.206,2.492a1.36,1.36,0,0,1,.206-2.492" transform="translate(-149.002 -117.369)" fill="#454849"/>
      <path id="Path_44492" data-name="Path 44492" d="M288.657,149.857c2.265-.468,2.129,3.207-.206,2.492a1.36,1.36,0,0,1,.206-2.492" transform="translate(-131.285 -68.358)" fill="#454849"/>
      <path id="Path_44493" data-name="Path 44493" d="M292.212,257.281c1.578-.325,2.286,1.967.854,2.442a1.3,1.3,0,1,1-.854-2.442" transform="translate(-132.868 -117.378)" fill="#454849"/>
      <path id="Path_44494" data-name="Path 44494" d="M151.126,257.27c2.265-.468,2.129,3.207-.206,2.492a1.36,1.36,0,0,1,.206-2.492" transform="translate(-68.532 -117.369)" fill="#454849"/>
      <path id="Path_44495" data-name="Path 44495" d="M174.64,257.281c1.578-.325,2.286,1.967.854,2.442a1.3,1.3,0,1,1-.854-2.442" transform="translate(-79.222 -117.378)" fill="#454849"/>
      <path id="Path_44496" data-name="Path 44496" d="M186.325,257.244c2.161-.633,2.3,3.26-.154,2.444-1.191-.4-.884-2.14.154-2.444" transform="translate(-84.596 -117.344)" fill="#454849"/>
      <path id="Path_44497" data-name="Path 44497" d="M228.308,152.149c-1.246-1.006.43-3.159,1.821-1.917,1.309,1.168-.582,2.918-1.821,1.917" transform="translate(-103.973 -68.377)" fill="#454849"/>
      <path id="Path_44498" data-name="Path 44498" d="M240.757,149.831c2.161-.633,2.3,3.26-.154,2.444-1.191-.4-.884-2.14.154-2.444" transform="translate(-109.432 -68.333)" fill="#454849"/>
      <path id="Path_44499" data-name="Path 44499" d="M252.919,149.858c2.227-.406,1.85,3.477-.494,2.388-1.121-.521-.668-2.176.494-2.388" transform="translate(-114.883 -68.364)" fill="#454849"/>
      <path id="Path_44500" data-name="Path 44500" d="M276.682,149.831c2.161-.633,2.3,3.26-.154,2.444-1.191-.4-.884-2.14.154-2.444" transform="translate(-125.824 -68.333)" fill="#454849"/>
      <path id="Path_44501" data-name="Path 44501" d="M315.567,257.254a1.323,1.323,0,0,1,.9,2.486,1.323,1.323,0,0,1-.9-2.486" transform="translate(-143.6 -117.347)" fill="#454849"/>
      <path id="Path_44502" data-name="Path 44502" d="M80.422,257.254a1.323,1.323,0,0,1,.9,2.486,1.323,1.323,0,0,1-.9-2.486" transform="translate(-36.307 -117.347)" fill="#454849"/>
      <path id="Path_44503" data-name="Path 44503" d="M303.9,257.244c2.161-.633,2.3,3.26-.154,2.444-1.191-.4-.884-2.14.154-2.444" transform="translate(-138.242 -117.344)" fill="#454849"/>
      <path id="Path_44504" data-name="Path 44504" d="M280.35,257.254a1.324,1.324,0,0,1,.9,2.486,1.324,1.324,0,0,1-.9-2.486" transform="translate(-127.521 -117.348)" fill="#454849"/>
      <path id="Path_44505" data-name="Path 44505" d="M256.781,257.254a1.323,1.323,0,0,1,.9,2.486,1.323,1.323,0,0,1-.9-2.486" transform="translate(-116.777 -117.347)" fill="#454849"/>
      <path id="Path_44506" data-name="Path 44506" d="M245.111,257.244c2.162-.633,2.3,3.26-.154,2.444-1.192-.4-.885-2.14.154-2.444" transform="translate(-111.419 -117.344)" fill="#454849"/>
      <path id="Path_44507" data-name="Path 44507" d="M234.585,259.536c-1.3,1.046-3-.785-1.825-1.923,1.332-1.291,3.15.855,1.825,1.923" transform="translate(-106.025 -117.361)" fill="#454849"/>
      <path id="Path_44508" data-name="Path 44508" d="M197.995,257.254a1.323,1.323,0,0,1,.9,2.486,1.323,1.323,0,0,1-.9-2.486" transform="translate(-89.954 -117.347)" fill="#454849"/>
      <path id="Path_44509" data-name="Path 44509" d="M139.208,257.254a1.323,1.323,0,0,1,.9,2.486,1.323,1.323,0,0,1-.9-2.486" transform="translate(-63.13 -117.347)" fill="#454849"/>
      <path id="Path_44510" data-name="Path 44510" d="M92.315,257.28c1.569-.33,2.291,1.965.854,2.442a1.3,1.3,0,1,1-.854-2.442" transform="translate(-41.685 -117.377)" fill="#454849"/>
      <path id="Path_44511" data-name="Path 44511" d="M103.478,259.533c-1.252-1.01.465-3.241,1.825-1.923,1.173,1.137-.529,2.969-1.825,1.923" transform="translate(-47.017 -117.358)" fill="#454849"/>
      <path id="Path_44512" data-name="Path 44512" d="M221.051,259.533c-1.252-1.01.465-3.241,1.825-1.923,1.173,1.137-.528,2.969-1.825,1.923" transform="translate(-100.664 -117.358)" fill="#454849"/>
      <path id="Path_44513" data-name="Path 44513" d="M217.03,149.862c1.743-.314,1.95,2.3.533,2.536a1.3,1.3,0,1,1-.533-2.536" transform="translate(-98.526 -68.367)" fill="#454849"/>
      <path id="Path_44514" data-name="Path 44514" d="M162.795,257.252a1.324,1.324,0,0,1,.9,2.486,1.324,1.324,0,0,1-.9-2.486" transform="translate(-73.893 -117.346)" fill="#454849"/>
      <path id="Path_44515" data-name="Path 44515" d="M117.067,259.545c-1.825,1.471-3.244-2.09-1.009-2.309a1.35,1.35,0,0,1,1.009,2.309" transform="translate(-52.433 -117.37)" fill="#454849"/>
      <path id="Path_44516" data-name="Path 44516" d="M133.241,149.863a1.3,1.3,0,0,1,.7,2.5,1.3,1.3,0,1,1-.7-2.5" transform="translate(-60.315 -68.368)" fill="#454849"/>
      <path id="Path_44517" data-name="Path 44517" d="M181.1,149.862c1.743-.314,1.95,2.3.533,2.536a1.3,1.3,0,1,1-.533-2.536" transform="translate(-82.134 -68.367)" fill="#454849"/>
      <path id="Path_44518" data-name="Path 44518" d="M121.287,149.864a1.3,1.3,0,0,1,.7,2.495,1.3,1.3,0,1,1-.7-2.495" transform="translate(-54.871 -68.369)" fill="#454849"/>
      <path id="Path_44519" data-name="Path 44519" d="M145.237,149.864a1.3,1.3,0,0,1,.7,2.495,1.3,1.3,0,1,1-.7-2.495" transform="translate(-65.799 -68.369)" fill="#454849"/>
      <path id="Path_44520" data-name="Path 44520" d="M156.466,152.146c-1.231-1.162.575-3.155,1.832-1.93s-.725,2.975-1.832,1.93" transform="translate(-71.205 -68.365)" fill="#454849"/>
      <path id="Path_44521" data-name="Path 44521" d="M169.166,149.864a1.3,1.3,0,0,1,.7,2.5,1.3,1.3,0,1,1-.7-2.5" transform="translate(-76.707 -68.369)" fill="#454849"/>
      <path id="Path_44522" data-name="Path 44522" d="M205.09,149.862a1.3,1.3,0,0,1,.534,2.535,1.3,1.3,0,1,1-.534-2.535" transform="translate(-93.097 -68.368)" fill="#454849"/>
      <path id="Path_44523" data-name="Path 44523" d="M192.378,152.136c-1.38-1.3.943-3.241,1.937-1.838a1.349,1.349,0,0,1-1.937,1.838" transform="translate(-87.584 -68.356)" fill="#454849"/>
      <path id="Path_44524" data-name="Path 44524" d="M111.627,455.236l4.193-3.566c1.653-1.427,2.279-2.175,2.279-3.288a1.835,1.835,0,0,0-1.966-1.9c-1.114,0-1.879.592-2.8,1.827l-1.531-1.2a5.031,5.031,0,0,1,4.488-2.54c2.366,0,4.019,1.461,4.019,3.636v.035c0,1.931-1.009,2.94-3.167,4.715l-2.5,2.087h5.793v1.879h-8.8Z" transform="translate(-50.933 -202.85)" fill="#454849"/>
      <path id="Path_44525" data-name="Path 44525" d="M132.462,450.84V450.8c0-3.479,2.123-6.3,5.324-6.3,3.184,0,5.289,2.784,5.289,6.263v.035c0,3.479-2.122,6.3-5.324,6.3s-5.289-2.784-5.289-6.263m8.4,0V450.8c0-2.4-1.235-4.367-3.114-4.367s-3.079,1.931-3.079,4.332v.035c0,2.4,1.218,4.367,3.114,4.367,1.879,0,3.08-1.948,3.08-4.332" transform="translate(-60.44 -202.821)" fill="#454849"/>
      <path id="Path_44526" data-name="Path 44526" d="M155.847,455.236l4.193-3.566c1.653-1.427,2.279-2.175,2.279-3.288a1.835,1.835,0,0,0-1.966-1.9c-1.114,0-1.879.592-2.8,1.827l-1.531-1.2a5.031,5.031,0,0,1,4.488-2.54c2.366,0,4.019,1.461,4.019,3.636v.035c0,1.931-1.009,2.94-3.167,4.715l-2.5,2.087h5.793v1.879h-8.8Z" transform="translate(-71.11 -202.85)" fill="#454849"/>
      <path id="Path_44527" data-name="Path 44527" d="M176.567,455.156l1.5-1.409a3.923,3.923,0,0,0,3.2,1.6,1.916,1.916,0,0,0,2.105-1.844v-.035c0-1.2-1.079-1.879-2.8-1.879h-.991l-.348-1.339,3.288-3.5h-5.271v-1.862H185.3v1.6l-3.393,3.479c1.844.226,3.584,1.166,3.584,3.41v.035c0,2.244-1.722,3.862-4.263,3.862a5.762,5.762,0,0,1-4.662-2.122" transform="translate(-80.564 -202.996)" fill="#454849"/>
      <rect id="Rectangle_1842" data-name="Rectangle 1842" width="7.237" height="2.001" transform="translate(108.547 247.741)" fill="#454849"/>
      <path id="Path_44528" data-name="Path 44528" d="M217.175,455.236l4.193-3.566c1.653-1.427,2.279-2.175,2.279-3.288a1.836,1.836,0,0,0-1.966-1.9c-1.114,0-1.879.592-2.8,1.827l-1.532-1.2a5.032,5.032,0,0,1,4.489-2.54c2.366,0,4.019,1.461,4.019,3.636v.035c0,1.931-1.01,2.94-3.167,4.715l-2.505,2.087h5.793v1.879h-8.8Z" transform="translate(-99.093 -202.85)" fill="#454849"/>
      <path id="Path_44529" data-name="Path 44529" d="M238.01,450.84V450.8c0-3.479,2.122-6.3,5.324-6.3,3.183,0,5.289,2.784,5.289,6.263v.035c0,3.479-2.122,6.3-5.324,6.3s-5.289-2.784-5.289-6.263m8.4,0V450.8c0-2.4-1.235-4.367-3.114-4.367s-3.08,1.931-3.08,4.332v.035c0,2.4,1.219,4.367,3.114,4.367,1.879,0,3.08-1.948,3.08-4.332" transform="translate(-108.6 -202.821)" fill="#454849"/>
      <path id="Path_44530" data-name="Path 44530" d="M261.395,455.236l4.193-3.566c1.653-1.427,2.279-2.175,2.279-3.288a1.836,1.836,0,0,0-1.966-1.9c-1.114,0-1.879.592-2.8,1.827l-1.532-1.2a5.032,5.032,0,0,1,4.489-2.54c2.366,0,4.019,1.461,4.019,3.636v.035c0,1.931-1.01,2.94-3.167,4.715l-2.505,2.087H270.2v1.879h-8.8Z" transform="translate(-119.27 -202.85)" fill="#454849"/>
      <path id="Path_44531" data-name="Path 44531" d="M287.587,454.265h-6.141l-.4-1.531,6.768-8h1.827v7.777h1.74v1.757h-1.74V457h-2.053Zm0-1.757v-4.819l-4,4.819Z" transform="translate(-128.236 -202.923)" fill="#454849"/>
    </g>
  </g>
</svg>
