<svg xmlns="http://www.w3.org/2000/svg" xmlns:xlink="http://www.w3.org/1999/xlink" width="220.869" height="243.942" viewBox="0 0 220.869 243.942">
  <defs>
    <clipPath id="clip-path">
      <rect id="Rectangle_1848" data-name="Rectangle 1848" width="220.869" height="243.942" fill="none"/>
    </clipPath>
  </defs>
  <g id="Group_5221" data-name="Group 5221" transform="translate(-0.001)">
    <g id="Group_5220" data-name="Group 5220" transform="translate(0.001)" clip-path="url(#clip-path)">
      <path id="Path_44568" data-name="Path 44568" d="M199.731,228.332c-3.461,2.032-6.9,4.107-10.387,6.089-11.4,6.477-22.857,12.866-34.225,19.405a21.559,21.559,0,0,1-13.5,2.66,18.124,18.124,0,0,1-6.981-2.54q-7.436-4.257-14.845-8.56-14.735-8.519-29.466-17.044c-3.065-1.773-6.177-3.472-9.181-5.343a15.6,15.6,0,0,1-7.83-14.082c.007-1.943.034-3.886.053-5.83,1.18-.408,1.985.42,2.89.893,3.655,1.911,7,4.4,10.885,5.881,6.4,3.141,12.4,6.99,18.574,10.519,11.308,6.459,22.528,13.073,33.838,19.528a10.2,10.2,0,0,0,10.617.119c10.392-5.78,20.715-11.682,31.046-17.569,5.412-3.085,10.782-6.241,16.241-9.241.912-.5,2.009-1.484,2.8.246a112.21,112.21,0,0,1,.175,13.1,2.653,2.653,0,0,1-.7,1.771" transform="translate(-33.452 -92.615)" fill="#454849"/>
      <path id="Path_44569" data-name="Path 44569" d="M87.524,124.755c-.906-.343-10.355-4.777-14.213-6.951-.029-.727-.084-1.454-.084-2.181,0-16.288.049-32.575-.034-48.862a19.432,19.432,0,0,1,5.188-13.822,24.049,24.049,0,0,1,5.84-4.565c9.023-5.208,18.072-10.37,27.1-15.574,7.777-4.485,15.529-9.015,23.308-13.5a30.688,30.688,0,0,1,4.285-2.149,15.822,15.822,0,0,1,13.456.923,50.361,50.361,0,0,1,6.023,3.486c.032,1.253-1.048,1.485-1.834,1.961-3.5,2.115-7.109,4.037-10.529,6.286-13.906,7.8-27.631,15.91-41.48,23.8-3.023,1.724-5.892,3.752-9.047,5.2-6.054,2.774-7.748,8.006-7.9,13.91-.22,8.655-.057,17.321-.058,25.982,0,7.69.011,15.379-.012,23.069,0,1.105.066,1.881-.007,2.983" transform="translate(-33.397 -7.331)" fill="#454849"/>
      <path id="Path_44570" data-name="Path 44570" d="M207.149,34.422c1.671-1.064,12.21-8.07,12.363-8.247,6.633,3.857,13.372,8.03,20.147,11.854,8.1,4.574,16.118,9.111,24.256,13.624A20.023,20.023,0,0,1,274.3,65.044a15.959,15.959,0,0,1,.153,3.63c.008,20.64-.027,41.281.027,61.921a15.3,15.3,0,0,1-6.259,12.705,44.428,44.428,0,0,1-8.048,4.731c-.02-5.68-.04-18.5-.042-19.76-.021-18.232-.083-36.464.028-54.695.033-5.475-1.939-9.306-6.825-12.1-14.554-8.327-28.967-16.9-43.452-25.349-1.025-.6-1.382-.84-2.734-1.7" transform="translate(-94.518 -11.943)" fill="#454849"/>
      <path id="Path_44571" data-name="Path 44571" d="M233.562,144.966V133.954H223.013V122.376c1.678-.012,8.634,0,10.562,0,0-1.91.011-9.04-.014-11.143h12.548c0,3.569.024,7.522.024,11.143h10.408c.009,1.815,0,8.18-.007,11.546h-10.4v11.043Z" transform="translate(-101.757 -50.754)" fill="#454849"/>
      <path id="Path_44572" data-name="Path 44572" d="M210.815,217.243a4.517,4.517,0,0,1-2.35,0V200.572c.688-.518,1.466-.128,2.35-.263Z" transform="translate(-95.119 -91.39)" fill="#454849"/>
      <path id="Path_44573" data-name="Path 44573" d="M159.167,98.538H143.935l-16.982,46.537h13.863l2.451-7.217h16.492l2.484,7.33c2.335,0,4.594.007,6.855,0,2.3-.009,4.61.043,7.054-.04-5.785-15.738-11.3-31.24-16.984-46.609m-3.668,29.08c-2.807.016-5.614.011-8.934.011l4.933-14.954c1.734,5.206,3.295,9.89,4.868,14.613a3.467,3.467,0,0,1-.867.331" transform="translate(-57.926 -44.961)" fill="#454849" fill-rule="evenodd"/>
      <path id="Path_44574" data-name="Path 44574" d="M236.757,203.338a8.964,8.964,0,0,0-10.544-2.975c-4.115,1.644-6.006,5.715-5.258,10.035a8.117,8.117,0,0,0,2.69,4.744c2.45,2.157,5.383,2.311,8.226,1.938,1.413.81,1.855,2.3,3.2,3.039a9.587,9.587,0,0,0,3.234-.173l-3.753-4c4.17-4.242,4.918-8.685,2.2-12.609m-7.207,11.625a6.234,6.234,0,0,1-5.879-6.407c0-3.679,2.491-6.424,5.537-6.372,3.956.067,6.135,2.387,6.22,6.176.068,3.074-1.864,6.621-5.878,6.6" transform="translate(-100.745 -91.132)" fill="#454849"/>
      <path id="Path_44575" data-name="Path 44575" d="M188.342,209.8a5.476,5.476,0,0,0-4.959-3.323,7.1,7.1,0,0,0-5.424,1.964c-.081-.661-.144-1.17-.2-1.659a4.4,4.4,0,0,0-2.378-.091V226.5a3.542,3.542,0,0,0,2.469-.242v-7.8c.917.506,1.724,1.03,2.593,1.414,2.137.943,5.68.529,7.334-2a8.182,8.182,0,0,0,.569-8.077m-2.148,4.691c-.735,2.383-2.223,3.473-4.549,3.4a4.189,4.189,0,0,1-3.457-3.465,5.36,5.36,0,0,1,.89-4.093,4.089,4.089,0,0,1,3.285-1.452,3.71,3.71,0,0,1,1.519.332,4.682,4.682,0,0,1,2.312,5.281" transform="translate(-80.022 -94.199)" fill="#454849" fill-rule="evenodd"/>
      <path id="Path_44576" data-name="Path 44576" d="M155.379,212.523a6.582,6.582,0,0,0-10-5.482,6.651,6.651,0,0,0-3.242,6.584,6.374,6.374,0,0,0,3.578,5.861,7.306,7.306,0,0,0,5.654.313,4.683,4.683,0,0,0,3.471-3.636h-2.688c-1.145,1.179-2.376,2.308-4.35,1.569a3.494,3.494,0,0,1-2.68-3.441h10.261c0-.82.01-1.295,0-1.769m-10.29-.484a3.484,3.484,0,0,1,1.658-2.909,3.7,3.7,0,0,1,3.209-.311c1.719.668,2.071,1.507,2.3,3.22Z" transform="translate(-64.846 -94.031)" fill="#454849" fill-rule="evenodd"/>
      <path id="Path_44577" data-name="Path 44577" d="M167.669,317.927h-3.341v9.212h-1.847v-9.212h-3.311v-1.5h8.5Z" transform="translate(-72.627 -144.38)" fill="#454849"/>
      <path id="Path_44578" data-name="Path 44578" d="M185.05,321.939a6.579,6.579,0,0,1-.544,2.763,4.118,4.118,0,0,1-1.556,1.825,4.564,4.564,0,0,1-4.65,0,4.176,4.176,0,0,1-1.575-1.814,6.375,6.375,0,0,1-.563-2.715v-.6a6.511,6.511,0,0,1,.556-2.767,4.178,4.178,0,0,1,1.566-1.836,4.576,4.576,0,0,1,4.643-.007,4.125,4.125,0,0,1,1.564,1.81,6.509,6.509,0,0,1,.559,2.749Zm-1.862-.559a4.683,4.683,0,0,0-.673-2.73,2.375,2.375,0,0,0-3.8,0,4.593,4.593,0,0,0-.7,2.675v.618a4.647,4.647,0,0,0,.688,2.73,2.214,2.214,0,0,0,1.909.964,2.19,2.19,0,0,0,1.9-.942,4.746,4.746,0,0,0,.666-2.752Z" transform="translate(-80.379 -144.256)" fill="#454849"/>
      <path id="Path_44579" data-name="Path 44579" d="M197.757,323.166v3.973h-1.862V316.426h4.1a4.144,4.144,0,0,1,2.851.936,3.146,3.146,0,0,1,1.056,2.475,3.04,3.04,0,0,1-1.034,2.453,4.341,4.341,0,0,1-2.9.877Zm0-1.5h2.236a2.2,2.2,0,0,0,1.516-.467,1.718,1.718,0,0,0,.523-1.351,1.854,1.854,0,0,0-.53-1.387,2.047,2.047,0,0,0-1.457-.533h-2.288Z" transform="translate(-89.383 -144.379)" fill="#454849"/>
      <path id="Path_44580" data-name="Path 44580" d="M220.585,321.827l.581-5.4h5.754v1.546h-4.267l-.294,2.56a3.308,3.308,0,0,1,1.677-.427,2.986,2.986,0,0,1,2.38.979,3.877,3.877,0,0,1,.85,2.634,3.573,3.573,0,0,1-.942,2.6,3.44,3.44,0,0,1-2.583.967,3.6,3.6,0,0,1-2.44-.835,3.017,3.017,0,0,1-1.048-2.2h1.728a1.885,1.885,0,0,0,.559,1.2,1.7,1.7,0,0,0,1.192.416,1.535,1.535,0,0,0,1.284-.589,2.54,2.54,0,0,0,.46-1.6,2.245,2.245,0,0,0-.508-1.549,1.775,1.775,0,0,0-1.4-.57,1.957,1.957,0,0,0-1.559.633Z" transform="translate(-100.498 -144.379)" fill="#454849"/>
      <path id="Path_44581" data-name="Path 44581" d="M242.67,322.506a5.845,5.845,0,0,1-.865,3.484,3.055,3.055,0,0,1-2.631,1.173,3.091,3.091,0,0,1-2.615-1.144,5.594,5.594,0,0,1-.9-3.388v-1.854a5.759,5.759,0,0,1,.864-3.466,3.6,3.6,0,0,1,5.261-.03,5.578,5.578,0,0,1,.887,3.37Zm-1.788-2a4.531,4.531,0,0,0-.412-2.211,1.575,1.575,0,0,0-2.6-.037,4.19,4.19,0,0,0-.434,2.078v2.428a4.655,4.655,0,0,0,.42,2.237,1.409,1.409,0,0,0,1.317.736,1.384,1.384,0,0,0,1.273-.681,4.378,4.378,0,0,0,.434-2.13Z" transform="translate(-107.527 -144.256)" fill="#454849"/>
      <path id="Path_44582" data-name="Path 44582" d="M70.823,349.754l2.384,6.334,2.378-6.334h1.856v8.265H76.011v-2.725l.142-3.644-2.441,6.369H72.685l-2.435-6.363.142,3.639v2.725H68.961v-8.265Z" transform="translate(-31.466 -159.586)" fill="#454849"/>
      <path id="Path_44583" data-name="Path 44583" d="M91.809,356.094h-3.2l-.67,1.924H86.445l3.122-8.265h1.289l3.127,8.265h-1.5Zm-2.8-1.158h2.4l-1.2-3.429Z" transform="translate(-39.443 -159.586)" fill="#454849"/>
      <path id="Path_44584" data-name="Path 44584" d="M108.731,358.018h-1.437l-3.683-5.863v5.863h-1.437v-8.265h1.437l3.7,5.886v-5.886h1.425Z" transform="translate(-46.62 -159.586)" fill="#454849"/>
      <path id="Path_44585" data-name="Path 44585" d="M121.488,356.094h-3.2l-.67,1.924h-1.493l3.122-8.265h1.289l3.127,8.265h-1.5Zm-2.8-1.158h2.4l-1.2-3.429Z" transform="translate(-52.985 -159.586)" fill="#454849"/>
      <path id="Path_44586" data-name="Path 44586" d="M137.282,356.849a2.748,2.748,0,0,1-1.243.886,5.071,5.071,0,0,1-1.8.3,3.549,3.549,0,0,1-1.839-.472,3.133,3.133,0,0,1-1.235-1.348,4.726,4.726,0,0,1-.451-2.046v-.647a4.373,4.373,0,0,1,.9-2.926,3.11,3.11,0,0,1,2.5-1.053,3.29,3.29,0,0,1,2.191.685,2.944,2.944,0,0,1,.976,1.967h-1.408a1.583,1.583,0,0,0-1.731-1.493,1.7,1.7,0,0,0-1.467.695,3.54,3.54,0,0,0-.52,2.039v.635a3.359,3.359,0,0,0,.565,2.078,1.861,1.861,0,0,0,1.569.74,2.065,2.065,0,0,0,1.566-.5v-1.617h-1.7v-1.09h3.133Z" transform="translate(-59.64 -159.491)" fill="#454849"/>
      <path id="Path_44587" data-name="Path 44587" d="M150.572,354.329h-3.394v2.543h3.968v1.147h-5.4v-8.264H151.1v1.158h-3.927v2.281h3.394Z" transform="translate(-66.499 -159.586)" fill="#454849"/>
      <path id="Path_44588" data-name="Path 44588" d="M159.67,349.754l2.384,6.334,2.378-6.334h1.856v8.265h-1.431v-2.725L165,351.65l-2.441,6.369h-1.027l-2.435-6.363.142,3.639v2.725h-1.431v-8.265Z" transform="translate(-72.005 -159.586)" fill="#454849"/>
      <path id="Path_44589" data-name="Path 44589" d="M181.412,354.329h-3.394v2.543h3.968v1.147h-5.4v-8.264h5.364v1.158h-3.927v2.281h3.394Z" transform="translate(-80.571 -159.586)" fill="#454849"/>
      <path id="Path_44590" data-name="Path 44590" d="M195.205,358.018h-1.437l-3.683-5.863v5.863h-1.436v-8.265h1.436l3.7,5.886v-5.886h1.425Z" transform="translate(-86.077 -159.586)" fill="#454849"/>
      <path id="Path_44591" data-name="Path 44591" d="M209.3,350.912H206.72v7.106H205.3v-7.106H202.74v-1.158H209.3Z" transform="translate(-92.507 -159.586)" fill="#454849"/>
      <path id="Path_44592" data-name="Path 44592" d="M228.2,355.233a2.986,2.986,0,0,1-.977,2.063,3.329,3.329,0,0,1-2.265.741,3.223,3.223,0,0,1-1.74-.468,3.076,3.076,0,0,1-1.161-1.331,4.806,4.806,0,0,1-.426-2v-.772a4.83,4.83,0,0,1,.415-2.06,3.121,3.121,0,0,1,1.189-1.373,3.315,3.315,0,0,1,1.791-.483,3.2,3.2,0,0,1,2.2.741,3.1,3.1,0,0,1,.971,2.1h-1.431a2.044,2.044,0,0,0-.519-1.285,1.717,1.717,0,0,0-1.223-.395,1.677,1.677,0,0,0-1.439.685,3.418,3.418,0,0,0-.514,2.008v.733a3.629,3.629,0,0,0,.48,2.045,1.59,1.59,0,0,0,1.4.7,1.858,1.858,0,0,0,1.271-.38,1.987,1.987,0,0,0,.539-1.266Z" transform="translate(-101.129 -159.491)" fill="#454849"/>
      <path id="Path_44593" data-name="Path 44593" d="M242.437,354.007a5.071,5.071,0,0,1-.42,2.131,3.176,3.176,0,0,1-1.2,1.408,3.522,3.522,0,0,1-3.587,0,3.226,3.226,0,0,1-1.215-1.4,4.914,4.914,0,0,1-.434-2.094v-.465a5.031,5.031,0,0,1,.428-2.134,3.228,3.228,0,0,1,1.209-1.416,3.531,3.531,0,0,1,3.582-.006,3.184,3.184,0,0,1,1.206,1.4,5.017,5.017,0,0,1,.432,2.12ZM241,353.575a3.613,3.613,0,0,0-.519-2.106,1.832,1.832,0,0,0-2.929,0,3.547,3.547,0,0,0-.536,2.063v.477a3.589,3.589,0,0,0,.53,2.106,1.711,1.711,0,0,0,1.473.743,1.689,1.689,0,0,0,1.468-.726,3.66,3.66,0,0,0,.513-2.123Z" transform="translate(-107.491 -159.491)" fill="#454849"/>
      <path id="Path_44594" data-name="Path 44594" d="M252.711,349.754l2.384,6.334,2.378-6.334h1.856v8.265H257.9v-2.725l.142-3.644-2.441,6.369h-1.027l-2.435-6.363.142,3.639v2.725H250.85v-8.265Z" transform="translate(-114.458 -159.586)" fill="#454849"/>
      <path id="Path_44595" data-name="Path 44595" d="M271.06,354.953v3.065h-1.437v-8.265h3.162a3.2,3.2,0,0,1,2.2.722,2.427,2.427,0,0,1,.815,1.909,2.347,2.347,0,0,1-.8,1.893,3.354,3.354,0,0,1-2.234.676Zm0-1.158h1.725a1.7,1.7,0,0,0,1.17-.36,1.327,1.327,0,0,0,.4-1.042,1.429,1.429,0,0,0-.409-1.07,1.577,1.577,0,0,0-1.124-.412H271.06Z" transform="translate(-123.024 -159.586)" fill="#454849"/>
      <path id="Path_44596" data-name="Path 44596" d="M286.119,356.094h-3.2l-.67,1.924h-1.493l3.122-8.265h1.289l3.127,8.265h-1.5Zm-2.8-1.158h2.4l-1.2-3.429Z" transform="translate(-128.104 -159.586)" fill="#454849"/>
      <path id="Path_44597" data-name="Path 44597" d="M303.04,358.018H301.6l-3.683-5.863v5.863h-1.436v-8.265h1.436l3.7,5.886v-5.886h1.425Z" transform="translate(-135.28 -159.586)" fill="#454849"/>
      <rect id="Rectangle_1846" data-name="Rectangle 1846" width="1.431" height="8.265" transform="translate(169.53 190.168)" fill="#454849"/>
      <path id="Path_44598" data-name="Path 44598" d="M322.491,354.329H319.1v2.543h3.967v1.147h-5.4v-8.264h5.364v1.158H319.1v2.281h3.394Z" transform="translate(-144.943 -159.586)" fill="#454849"/>
      <path id="Path_44599" data-name="Path 44599" d="M333.743,355.795a1,1,0,0,0-.383-.84,4.623,4.623,0,0,0-1.382-.6,6.671,6.671,0,0,1-1.59-.669,2.12,2.12,0,0,1-1.129-1.85,2.014,2.014,0,0,1,.815-1.646,3.3,3.3,0,0,1,2.115-.647,3.57,3.57,0,0,1,1.538.318,2.521,2.521,0,0,1,1.061.905,2.318,2.318,0,0,1,.386,1.3h-1.431a1.3,1.3,0,0,0-.406-1.013,1.679,1.679,0,0,0-1.161-.366,1.753,1.753,0,0,0-1.093.3,1,1,0,0,0-.388.84.9.9,0,0,0,.42.758,4.816,4.816,0,0,0,1.385.59,6.347,6.347,0,0,1,1.549.654,2.462,2.462,0,0,1,.858.839,2.19,2.19,0,0,1,.272,1.11,1.966,1.966,0,0,1-.792,1.643,3.432,3.432,0,0,1-2.149.611,4.037,4.037,0,0,1-1.649-.332,2.774,2.774,0,0,1-1.169-.917,2.283,2.283,0,0,1-.418-1.363h1.436a1.337,1.337,0,0,0,.465,1.09,2.04,2.04,0,0,0,1.334.386,1.774,1.774,0,0,0,1.127-.3.982.982,0,0,0,.377-.8" transform="translate(-150.118 -159.491)" fill="#454849"/>
      <path id="Path_44600" data-name="Path 44600" d="M209.975,214.1H10.894A10.906,10.906,0,0,1,0,203.2V10.894A10.906,10.906,0,0,1,10.894,0H209.975a10.907,10.907,0,0,1,10.894,10.894V203.2A10.907,10.907,0,0,1,209.975,214.1M10.894,1.087a9.818,9.818,0,0,0-9.806,9.806V203.2a9.818,9.818,0,0,0,9.806,9.807H209.975a9.818,9.818,0,0,0,9.807-9.807V10.894a9.818,9.818,0,0,0-9.807-9.806Z" fill="#454849"/>
      <path id="Path_44601" data-name="Path 44601" d="M107.255,436.217l4.193-3.566c1.653-1.427,2.279-2.175,2.279-3.288a1.836,1.836,0,0,0-1.966-1.9c-1.114,0-1.879.592-2.8,1.827l-1.531-1.2a5.03,5.03,0,0,1,4.488-2.54c2.366,0,4.019,1.461,4.019,3.636v.035c0,1.931-1.009,2.94-3.167,4.715l-2.5,2.087h5.793v1.879h-8.8Z" transform="translate(-48.939 -194.172)" fill="#454849"/>
      <path id="Path_44602" data-name="Path 44602" d="M128.09,431.821v-.034c0-3.48,2.123-6.3,5.324-6.3,3.184,0,5.289,2.783,5.289,6.263v.035c0,3.479-2.122,6.3-5.324,6.3s-5.289-2.784-5.289-6.264m8.4,0v-.034c0-2.4-1.235-4.367-3.114-4.367s-3.079,1.931-3.079,4.332v.035c0,2.4,1.218,4.367,3.114,4.367,1.879,0,3.08-1.949,3.08-4.332" transform="translate(-58.445 -194.143)" fill="#454849"/>
      <path id="Path_44603" data-name="Path 44603" d="M151.476,436.217l4.193-3.566c1.653-1.427,2.279-2.175,2.279-3.288a1.836,1.836,0,0,0-1.966-1.9c-1.114,0-1.879.592-2.8,1.827l-1.531-1.2a5.03,5.03,0,0,1,4.488-2.54c2.366,0,4.019,1.461,4.019,3.636v.035c0,1.931-1.009,2.94-3.167,4.715l-2.5,2.087h5.793v1.879h-8.8Z" transform="translate(-69.116 -194.172)" fill="#454849"/>
      <path id="Path_44604" data-name="Path 44604" d="M172.2,436.138l1.5-1.409a3.924,3.924,0,0,0,3.2,1.6A1.916,1.916,0,0,0,179,434.485v-.035c0-1.2-1.079-1.879-2.8-1.879h-.991l-.348-1.339,3.288-3.5h-5.271v-1.862h8.055v1.6l-3.393,3.48c1.844.226,3.584,1.166,3.584,3.41v.035c0,2.244-1.723,3.862-4.263,3.862a5.762,5.762,0,0,1-4.662-2.122" transform="translate(-78.57 -194.318)" fill="#454849"/>
      <rect id="Rectangle_1847" data-name="Rectangle 1847" width="7.237" height="2.001" transform="translate(106.17 237.4)" fill="#454849"/>
      <path id="Path_44605" data-name="Path 44605" d="M212.8,436.217,217,432.651c1.653-1.427,2.279-2.175,2.279-3.288a1.836,1.836,0,0,0-1.966-1.9c-1.114,0-1.879.592-2.8,1.827l-1.531-1.2a5.03,5.03,0,0,1,4.488-2.54c2.366,0,4.019,1.461,4.019,3.636v.035c0,1.931-1.009,2.94-3.167,4.715l-2.5,2.087h5.793v1.879h-8.8Z" transform="translate(-97.098 -194.172)" fill="#454849"/>
      <path id="Path_44606" data-name="Path 44606" d="M233.638,431.821v-.034c0-3.48,2.123-6.3,5.324-6.3,3.184,0,5.289,2.783,5.289,6.263v.035c0,3.479-2.122,6.3-5.324,6.3s-5.289-2.784-5.289-6.264m8.4,0v-.034c0-2.4-1.235-4.367-3.114-4.367s-3.079,1.931-3.079,4.332v.035c0,2.4,1.218,4.367,3.114,4.367,1.879,0,3.08-1.949,3.08-4.332" transform="translate(-106.605 -194.143)" fill="#454849"/>
      <path id="Path_44607" data-name="Path 44607" d="M257.023,436.217l4.193-3.566c1.653-1.427,2.279-2.175,2.279-3.288a1.836,1.836,0,0,0-1.966-1.9c-1.114,0-1.879.592-2.8,1.827l-1.531-1.2a5.03,5.03,0,0,1,4.488-2.54c2.366,0,4.019,1.461,4.019,3.636v.035c0,1.931-1.009,2.94-3.167,4.715l-2.5,2.087h5.793v1.879h-8.8Z" transform="translate(-117.275 -194.172)" fill="#454849"/>
      <path id="Path_44608" data-name="Path 44608" d="M283.216,435.246h-6.141l-.4-1.531,6.768-8h1.827v7.777h1.74v1.757h-1.74v2.732h-2.053Zm0-1.757V428.67l-4,4.819Z" transform="translate(-126.242 -194.245)" fill="#454849"/>
    </g>
  </g>
</svg>
