<svg id="Group_5223" data-name="Group 5223" xmlns="http://www.w3.org/2000/svg" xmlns:xlink="http://www.w3.org/1999/xlink" width="249.566" height="200.624" viewBox="0 0 249.566 200.624">
  <defs>
    <clipPath id="clip-path">
      <rect id="Rectangle_1851" data-name="Rectangle 1851" width="249.566" height="200.624" fill="none"/>
    </clipPath>
  </defs>
  <g id="Group_5222" data-name="Group 5222" clip-path="url(#clip-path)">
    <path id="Path_44609" data-name="Path 44609" d="M239.886,171.036H9.681A9.692,9.692,0,0,1,0,161.355V9.681A9.692,9.692,0,0,1,9.681,0h230.2a9.692,9.692,0,0,1,9.68,9.681V161.355a9.691,9.691,0,0,1-9.68,9.68M9.681,1.087A8.6,8.6,0,0,0,1.087,9.681V161.355a8.6,8.6,0,0,0,8.593,8.593h230.2a8.6,8.6,0,0,0,8.593-8.593V9.681a8.6,8.6,0,0,0-8.593-8.593Z" fill="#454849"/>
    <path id="Path_44610" data-name="Path 44610" d="M163.383,48.595c.2-.644,2.745-.3,3.42-.338.744,1.8,1.358,4,2.236,5.711.119.23.141.579.5.6l2.335-6.105,3.331-.237V58.961h-2.216V51.887c-.383.059-.465.455-.611.737-.662,1.283-1.8,5.31-2.466,6.093-.283.333-1.084.469-1.181-.058l-2.882-6.772V58.6a1.973,1.973,0,0,1-2.462,0Z" transform="translate(-74.549 -21.991)" fill="#454849"/>
    <path id="Path_44611" data-name="Path 44611" d="M269.742,48.175c2.647.436,3.721,3.985,1.109,5.244a3.027,3.027,0,0,1-1.355,5.733h-5.663l-.369-.366V48.175c1.908.221,4.459-.3,6.279,0m-.184,2.5c-.587-.575-2.778-.193-3.634-.3v2.2c.947-.124,2.754.264,3.529-.226a1.262,1.262,0,0,0,.1-1.668m-3.634,6.284c5.551.712,5.489-3.119,0-2.442Z" transform="translate(-120.213 -21.938)" fill="#454849"/>
    <path id="Path_44612" data-name="Path 44612" d="M244.738,48.257c9.231-1.568,9.315,12.144.208,10.9-5.9-.809-6.219-9.876-.208-10.9m.492,2.2c-3.154.562-3.137,5.834,0,6.471,5.145,1.047,5.445-7.441,0-6.471" transform="translate(-109.678 -21.962)" fill="#454849"/>
    <path id="Path_44613" data-name="Path 44613" d="M133.133,42.874l-1.411,3.5,4.612,10.157c-3.177.689-2.718-1.761-3.876-3.59-.158-.25.014-.427-.551-.31l-.53,1.673c-.891.167-1.939-.095-2.809.022-1.365.184-1.875,2.995-2.613,4.118l-2.423.038L130.7,42.9Zm-2.465,6.1c-.639-.115-.38.091-.511.345-.213.412-1.389,2.894-1.208,3.068h3.2Z" transform="translate(-56.365 -19.563)" fill="#454849"/>
    <path id="Path_44614" data-name="Path 44614" d="M215.821,57.107a6.765,6.765,0,0,1-1.592,1.35c-4.952,2.73-10.7-2.053-8.143-7.335,1.591-3.288,7.131-4.142,9.25-1.1.6.867-.947,1.141-1.574,1.569-2.782-3.034-7.112-.119-5.425,3.656.971,2.172,5.276,2.639,5.022-.217h-2.71V53.083h5.171Z" transform="translate(-93.747 -21.967)" fill="#454849"/>
    <path id="Path_44615" data-name="Path 44615" d="M290.116,48.255v2.2h-5.171v2.195h5.171V54.6h-5.171v2.439h5.171c-.069.736.275,1.676-.369,2.2h-6.894l-.369-.366V48.621l.369-.366Z" transform="translate(-128.892 -22.018)" fill="#454849"/>
    <path id="Path_44616" data-name="Path 44616" d="M311.5,49.418l-1.388,1.922c-.791-.852-4.535-1.676-4.532-.094,0,.943,3.339,1.329,4.2,1.7,3.262,1.421,2.3,5.45-.971,6.112A6.957,6.957,0,0,1,303,57.711c-.393-.612.639-1.428,1.019-1.939,1.407.82,4.65,2.379,5.263.1-.039-.963-3.287-1.308-4.18-1.7-2.305-1-2.778-3.562-.744-5.129,2.072-1.6,5.088-.884,7.145.377" transform="translate(-138.212 -21.957)" fill="#454849"/>
    <path id="Path_44617" data-name="Path 44617" d="M328.317,48.255c.58.177.331,1.673.37,2.2-.22.219-2.795-.4-3.2.365v8.049c-.638.719-1.67.3-2.462.122V50.451h-2.956l0-2.2Z" transform="translate(-146.041 -22.018)" fill="#454849"/>
    <path id="Path_44618" data-name="Path 44618" d="M229.608,48.254V56.67l.369.313c.1.007.185-.191.246-.191h3.693a1.925,1.925,0,0,1,0,2.439h-6.4c-.351-.214-.34-.486-.382-.841-.383-3.237.551-6.856.258-10.137Z" transform="translate(-103.594 -22.017)" fill="#454849"/>
    <path id="Path_44619" data-name="Path 44619" d="M151.108,48.255v8.416l.369.365h4.309l-.039,1.548-.331.4h-6.525V48.255Z" transform="translate(-67.937 -22.018)" fill="#454849"/>
    <rect id="Rectangle_1849" data-name="Rectangle 1849" width="0.493" height="10.732" transform="translate(106.316 26.237)" fill="#454849"/>
    <path id="Path_44620" data-name="Path 44620" d="M62.928,107.451V96.587l.4-.393h3.819v18.195c-.641.624-3.525.561-4.1.149l-8.542-11.8v11.65c-.414.6-3.626.516-3.968.278l-.21-.315.21-18.044,4.118.129Z" transform="translate(-22.961 -43.892)" fill="#454849"/>
    <path id="Path_44621" data-name="Path 44621" d="M217.491,107.406V96.542l.4-.393h3.819v18.195c-.481.586-3.47.548-3.949.259l-8.694-11.91v11.65c-.99.815-2.7.219-3.951.393V96.8c0-.066-.311-.208-.153-.4.306-.444,3.59-.384,4.25-.012Z" transform="translate(-93.498 -43.847)" fill="#454849"/>
    <path id="Path_44622" data-name="Path 44622" d="M405.4,107.653V96.526c.473-.637,3.829-.531,4.1-.134.158.188-.152.33-.152.4V114.46h-3.82l-8.56-11.781V114.46h-4.215V96.526c.506-.587,3.73-.55,4.213-.259Z" transform="translate(-179.209 -43.831)" fill="#454849"/>
    <path id="Path_44623" data-name="Path 44623" d="M313.94,96.112c6.487.711,8,8.92,1.964,11.4l3.7,6.928c-1.181.07-3.113.62-4.211.129-.967-.433-2.9-5.281-3.745-6.355l-2.844-.318v6.414a4.871,4.871,0,0,1-4.214,0V96.5l.395-.393c2.858.227,6.158-.307,8.956,0M308.8,104.49h4.873a7.916,7.916,0,0,0,1.309-.794c.909-1.061.257-3.919-1.045-3.919H308.8Z" transform="translate(-138.979 -43.81)" fill="#454849"/>
    <path id="Path_44624" data-name="Path 44624" d="M179.455,99.859v3.665h8.956v3.4h-8.956v4.189h8.824a3.744,3.744,0,0,1,0,3.665H175.636l-.395-.393v-17.8l.395-.393h12.644a3.744,3.744,0,0,1,0,3.665Z" transform="translate(-79.959 -43.892)" fill="#454849"/>
    <path id="Path_44625" data-name="Path 44625" d="M288.208,96.194v3.665h-8.956v3.665h8.56a3.273,3.273,0,0,1,0,3.4h-8.56v4.189h8.956c-.164,1.163.412,2.759-.4,3.665h-12.38l-.395-.393v-17.8l.395-.393Z" transform="translate(-125.495 -43.892)" fill="#454849"/>
    <path id="Path_44626" data-name="Path 44626" d="M151.772,96.194h3.951v13.221a15.408,15.408,0,0,1-.556,1.543c-2.366,5.355-12.153,5.475-14.858.425a10.875,10.875,0,0,1-.918-2.229V96.194h3.819c.376.23.364.522.409.9.4,3.386-.43,7.628-.02,11.015.481,3.973,6.614,4.3,7.782.916.063-.182.389-1.62.389-1.707Z" transform="translate(-63.602 -43.892)" fill="#454849"/>
    <path id="Path_44627" data-name="Path 44627" d="M347.138,101.255c-2.086-1.171-3.662-2.087-6.2-1.844-2.034.195-2.886,2.092-.906,3.03,2.854,1.351,8.69,1.045,9.42,5.3,1.419,8.256-10.827,8.71-15.094,4.262l2.12-3.142c1.5,1.877,6.718,3.452,8.441,1.58a1.815,1.815,0,0,0-.066-2.385c-2.452-1.965-9.285-.722-10.025-5.94-1-7.06,10.322-7.933,14.142-3.836Z" transform="translate(-152.563 -43.722)" fill="#454849"/>
    <path id="Path_44628" data-name="Path 44628" d="M253.552,101.965c-2.482-4.564-9.165-2.734-9.743,2.272-.716,6.2,6.143,9.574,9.874,4.313l3.525,1.68c-6.395,10.016-21.738,2.124-16.815-9.125,2.428-5.548,10.436-7.234,14.978-3.182,3.025,2.7.918,2.906-1.819,4.042" transform="translate(-109.25 -43.66)" fill="#454849"/>
    <path id="Path_44629" data-name="Path 44629" d="M90.8,99.859v3.665h8.956v3.4H90.8v7.854h-3.82l-.395-.393v-17.8l.395-.393H99.625a3.744,3.744,0,0,1,0,3.665Z" transform="translate(-39.508 -43.892)" fill="#454849"/>
    <path id="Path_44630" data-name="Path 44630" d="M119.384,96.194v14.922h7.639v3.665H115.564l-.395-.393V96.194Z" transform="translate(-52.55 -43.892)" fill="#454849"/>
    <path id="Path_44631" data-name="Path 44631" d="M383.893,114.447h-4.214V96.514a4.873,4.873,0,0,1,4.214,0Z" transform="translate(-173.241 -43.819)" fill="#454849"/>
    <rect id="Rectangle_1850" data-name="Rectangle 1850" width="3.951" height="18.588" transform="translate(20.212 52.302)" fill="#454849"/>
    <path id="Path_44632" data-name="Path 44632" d="M297.467,155.941l5.671,13.965,5.912-13.965H315.7l.37.368v22.9H310.9V163.29l-6.4,15.81-2.5-.032-6.133-15.533v15.678H290.69V155.941Z" transform="translate(-132.637 -71.153)" fill="#454849"/>
    <path id="Path_44633" data-name="Path 44633" d="M44.01,155.941l5.545,14.211,5.668-14.211h6.655l.369.368v22.9H57.071V163.29l-6.4,15.8-2.061.078-6.57-15.637v15.678H36.862v-22.9l.37-.368Z" transform="translate(-16.82 -71.153)" fill="#454849"/>
    <path id="Path_44634" data-name="Path 44634" d="M243.551,179.2l9.232-23.29,6.014.051L267.7,179.2h-5.668l-1.2-3.774-10.216-.157-1.395,3.931Zm8.379-8.329h7.393l-3.817-9.8Z" transform="translate(-111.128 -71.138)" fill="#454849"/>
    <path id="Path_44635" data-name="Path 44635" d="M95.977,155.941v14.33a8.036,8.036,0,0,0,.984,2.942c1.777,2.545,6.943,2.6,8.734.1a11.268,11.268,0,0,0,.879-1.821V156.309l.37-.368h4.806v16.29a12.452,12.452,0,0,1-1.123,3.048c-4.115,7.434-19.825,5.407-19.825-4.027V156.309l.37-.368Z" transform="translate(-41.431 -71.153)" fill="#454849"/>
    <path id="Path_44636" data-name="Path 44636" d="M231.29,155.941v4.41H220.077l-.37.367v4.532h11.337v4.41H219.707v9.554h-4.929l-.259-22.427.382-.845Z" transform="translate(-97.881 -71.153)" fill="#454849"/>
    <path id="Path_44637" data-name="Path 44637" d="M387.325,155.941l5.915,9.311,5.545-9.311h5.668c.086.376-.088.575-.231.873-.952,1.987-8.4,11.962-8.4,12.722v9.676h-5.176v-9.431c0-.779-7.568-11.114-8.575-13.033-.144-.274-.386-.429-.3-.807Z" transform="translate(-174.191 -71.153)" fill="#454849"/>
    <path id="Path_44638" data-name="Path 44638" d="M178.427,155.941V160.6h-6.654v18.617H166.6V160.6h-6.531l-.37-.368v-3.919l.37-.368Z" transform="translate(-72.867 -71.153)" fill="#454849"/>
    <path id="Path_44639" data-name="Path 44639" d="M141.756,155.941V174.8h9.858v4.41H136.58v-22.9l.37-.368Z" transform="translate(-62.319 -71.153)" fill="#454849"/>
    <path id="Path_44640" data-name="Path 44640" d="M366.574,155.941V174.8h9.858v4.41H361.768l-.37-.368V156.308l.37-.368Z" transform="translate(-164.9 -71.153)" fill="#454849"/>
    <path id="Path_44641" data-name="Path 44641" d="M202.946,155.941v23.272h-5.176v-22.9l.37-.368Z" transform="translate(-90.239 -71.153)" fill="#454849"/>
    <path id="Path_44642" data-name="Path 44642" d="M349.8,155.941v23.272h-5.176v-22.9l.37-.368Z" transform="translate(-157.248 -71.153)" fill="#454849"/>
    <path id="Path_44643" data-name="Path 44643" d="M48.568,223.366c8.24.866,9.861,11.872,2.092,14.578l4.932,8.694H50.047L45.609,238.8l-3.571-.247v8.083H36.862v-22.9l.37-.368c3.624.278,7.782-.374,11.337,0m-6.531,10.779h5.545a7.85,7.85,0,0,0,2.1-1.1,3.257,3.257,0,0,0,0-4.174,7.85,7.85,0,0,0-2.1-1.1H42.038Z" transform="translate(-16.819 -101.864)" fill="#454849"/>
    <path id="Path_44644" data-name="Path 44644" d="M93.715,223.467v4.41H82.378v4.9h11.09v4.41H82.378v5.144H93.715v4.41H77.2v-22.9l.37-.368Z" transform="translate(-35.226 -101.964)" fill="#454849"/>
    <path id="Path_44645" data-name="Path 44645" d="M109.838,246.93l9.228-23.042,6.274.04,8.649,23h-5.422l-1.641-3.88L116.889,243l-1.383,3.934Zm15.773-8.329-3.573-10.046-3.82,10.046Z" transform="translate(-50.117 -102.156)" fill="#454849"/>
    <path id="Path_44646" data-name="Path 44646" d="M307.914,246.93l8.653-23,6.271-.045,8.982,23.042H326.4L325.015,243l-10.038.054-1.642,3.88ZM323.44,238.6l-3.573-10.291L316.293,238.6Z" transform="translate(-140.496 -102.156)" fill="#454849"/>
    <path id="Path_44647" data-name="Path 44647" d="M223.8,227.876H212.588l-.37.368v4.532h11.337v4.409H212.219v5.145H223.8v4.409H207.289v-22.9l.37-.368h15.773l.37.368Z" transform="translate(-94.582 -101.964)" fill="#454849"/>
    <path id="Path_44648" data-name="Path 44648" d="M401.48,223.917v4.164H390.144v4.9h11.09v4.41h-11.09v5.144H401.48v4.41H384.968V223.917Z" transform="translate(-175.654 -102.169)" fill="#454849"/>
    <path id="Path_44649" data-name="Path 44649" d="M257.27,229.9l-.536,0c-1.666-1.937-8.152-3.639-9.478-1.006-.574,1.14-.066,1.982,1,2.563,3.485,1.9,10.781,1.183,11.893,6.551,1.826,8.807-8.88,10.554-15.165,7.97-.774-.318-3.71-1.91-3.7-2.686a16,16,0,0,1,2.623-3.539c2.5,2.09,6.621,3.885,9.8,2.4a2.07,2.07,0,0,0,.238-3.856c-3.889-2.274-12.429-1.1-12.1-8.423.368-8.162,13.434-8.353,17.917-3.468Z" transform="translate(-110.092 -101.823)" fill="#454849"/>
    <path id="Path_44650" data-name="Path 44650" d="M297.182,223.917v4.042l-.37.368h-6.531v18.617h-4.806c-.123,0-.406-.4-.377-.61l.254-18.007h-6.531l-.37-.368v-4.042Z" transform="translate(-127.053 -102.169)" fill="#454849"/>
    <path id="Path_44651" data-name="Path 44651" d="M365.625,223.917v4.042l-.37.368h-5.915c-.086,0-.273-.435-.616.122v18.5H353.8v-18.5l-.369-.315c-.1-.007-.185.192-.247.192h-5.915l-.37-.368v-4.042Z" transform="translate(-158.282 -102.169)" fill="#454849"/>
    <path id="Path_44652" data-name="Path 44652" d="M162.606,242.4h9.611v4.41H157.43V223.782h4.56c.086,0,.273-.434.616.122Z" transform="translate(-71.833 -102.034)" fill="#454849"/>
    <path id="Path_44653" data-name="Path 44653" d="M188.613,356.549l4.193-3.567c1.653-1.427,2.279-2.175,2.279-3.288a1.835,1.835,0,0,0-1.966-1.9c-1.114,0-1.879.592-2.8,1.827l-1.531-1.2a5.03,5.03,0,0,1,4.488-2.54c2.366,0,4.019,1.461,4.019,3.636v.035c0,1.931-1.009,2.94-3.167,4.715l-2.5,2.087h5.793v1.879h-8.8Z" transform="translate(-86.061 -157.821)" fill="#454849"/>
    <path id="Path_44654" data-name="Path 44654" d="M209.448,352.153v-.035c0-3.48,2.123-6.3,5.324-6.3,3.184,0,5.289,2.784,5.289,6.263v.035c0,3.479-2.122,6.3-5.324,6.3s-5.289-2.784-5.289-6.263m8.4,0v-.035c0-2.4-1.235-4.367-3.114-4.367s-3.079,1.931-3.079,4.332v.035c0,2.4,1.218,4.367,3.114,4.367,1.879,0,3.08-1.948,3.08-4.332" transform="translate(-95.567 -157.791)" fill="#454849"/>
    <path id="Path_44655" data-name="Path 44655" d="M232.833,356.549l4.194-3.567c1.652-1.427,2.279-2.175,2.279-3.288a1.836,1.836,0,0,0-1.967-1.9c-1.113,0-1.879.592-2.8,1.827l-1.531-1.2a5.03,5.03,0,0,1,4.489-2.54c2.366,0,4.018,1.461,4.018,3.636v.035c0,1.931-1.009,2.94-3.166,4.715l-2.505,2.087h5.793v1.879h-8.8Z" transform="translate(-106.238 -157.821)" fill="#454849"/>
    <path id="Path_44656" data-name="Path 44656" d="M253.554,356.469l1.5-1.409a3.922,3.922,0,0,0,3.2,1.6,1.916,1.916,0,0,0,2.105-1.844v-.035c0-1.2-1.079-1.879-2.8-1.879h-.992l-.348-1.339,3.288-3.5h-5.271V346.2h8.055v1.6l-3.393,3.48c1.845.226,3.584,1.165,3.584,3.41v.035c0,2.244-1.723,3.862-4.263,3.862a5.761,5.761,0,0,1-4.662-2.122" transform="translate(-115.692 -157.967)" fill="#454849"/>
  </g>
</svg>
