<svg xmlns="http://www.w3.org/2000/svg" xmlns:xlink="http://www.w3.org/1999/xlink" width="220.869" height="243.941" viewBox="0 0 220.869 243.941">
  <defs>
    <clipPath id="clip-path">
      <rect id="Rectangle_1845" data-name="Rectangle 1845" width="220.869" height="243.941" fill="none"/>
    </clipPath>
  </defs>
  <g id="Group_5219" data-name="Group 5219" transform="translate(0)">
    <g id="Group_5218" data-name="Group 5218" transform="translate(0)" clip-path="url(#clip-path)">
      <path id="Path_44532" data-name="Path 44532" d="M160.63,436.217l4.193-3.566c1.653-1.427,2.279-2.175,2.279-3.288a1.836,1.836,0,0,0-1.966-1.9c-1.114,0-1.879.592-2.8,1.827l-1.532-1.2a5.032,5.032,0,0,1,4.489-2.54c2.366,0,4.019,1.461,4.019,3.636v.035c0,1.931-1.009,2.94-3.166,4.715l-2.505,2.087h5.793V437.9h-8.8Z" transform="translate(-73.293 -194.172)" fill="#454849"/>
      <path id="Path_44533" data-name="Path 44533" d="M181.466,431.821v-.035c0-3.479,2.122-6.3,5.324-6.3,3.183,0,5.288,2.784,5.288,6.263v.035c0,3.479-2.122,6.3-5.324,6.3s-5.288-2.784-5.288-6.263m8.4,0v-.035c0-2.4-1.235-4.367-3.115-4.367s-3.079,1.931-3.079,4.332v.035c0,2.4,1.218,4.367,3.114,4.367,1.879,0,3.08-1.948,3.08-4.332" transform="translate(-82.8 -194.143)" fill="#454849"/>
      <path id="Path_44534" data-name="Path 44534" d="M204.851,436.217l4.193-3.566c1.653-1.427,2.279-2.175,2.279-3.288a1.836,1.836,0,0,0-1.966-1.9c-1.114,0-1.879.592-2.8,1.827l-1.532-1.2a5.032,5.032,0,0,1,4.489-2.54c2.366,0,4.019,1.461,4.019,3.636v.035c0,1.931-1.009,2.94-3.166,4.715l-2.505,2.087h5.793V437.9h-8.8Z" transform="translate(-93.47 -194.172)" fill="#454849"/>
      <path id="Path_44535" data-name="Path 44535" d="M225.571,436.137l1.5-1.409a3.922,3.922,0,0,0,3.2,1.6,1.916,1.916,0,0,0,2.105-1.844v-.035c0-1.2-1.079-1.879-2.8-1.879h-.992l-.348-1.339,3.288-3.5H226.25v-1.862H234.3v1.6l-3.393,3.479c1.845.226,3.584,1.166,3.584,3.41v.035c0,2.244-1.723,3.862-4.263,3.862a5.761,5.761,0,0,1-4.662-2.122" transform="translate(-102.924 -194.318)" fill="#454849"/>
      <path id="Path_44536" data-name="Path 44536" d="M61.1,94.4q4.215-13.99,8.428-27.982,5.559-18.5,11.114-36.993c1.867-6.17,4.852-8.267,10.548-7.558A6.9,6.9,0,0,1,97.6,27.68a20.226,20.226,0,0,1,.393,4.078q.03,57.18.012,114.36c0,5.464-2.374,9.076-6.6,10.16-5.863,1.505-10.95-1.923-11.707-7.926a24.252,24.252,0,0,1-.1-3.011q-.008-28.659,0-57.317V85.187L79,85.11q-3.319,9.939-6.636,19.878c-.635,1.906-1.215,3.83-1.878,5.726-1.727,4.938-5.024,7.486-9.653,7.511s-8-2.508-9.678-7.457c-2.7-7.956-5.311-15.94-7.963-23.912a3.306,3.306,0,0,0-1.2-1.79v2.692q0,29.481-.013,58.962c-.011,6.6-4.511,10.628-10.71,9.734a8.441,8.441,0,0,1-7.311-6.818,22.143,22.143,0,0,1-.367-4.356q-.029-56.357-.015-112.714c0-.365,0-.731,0-1.1.115-5.912,2.174-8.9,6.58-9.568,5.723-.862,9.087,1.307,10.844,7.127,2.956,9.791,5.855,19.6,8.776,29.4q5.353,17.963,10.7,35.927l.614.045" transform="translate(-10.76 -9.911)" fill="#454849"/>
      <path id="Path_44537" data-name="Path 44537" d="M297.531,97.074v41.017c1.033.063,1.991.169,2.949.171,8.143.014,16.285-.049,24.427.03,6.166.06,9.866,3.74,9.71,9.432a8.583,8.583,0,0,1-8.141,8.707c-.727.07-1.462.074-2.193.074-11.893,0-23.787.023-35.68,0-7.628-.018-11.352-3.681-11.357-11.251q-.033-56.222,0-112.444c0-7.578,3.739-11.282,11.319-11.3,12.077-.027,24.153-.056,36.229.014,6.845.04,10.734,4.858,9.367,11.372-.9,4.3-4.048,6.734-9.015,6.769-8.142.056-16.285.016-24.427.017H297.6V78.8c1.024.047,1.993.128,2.961.13,6.13.012,12.26-.045,18.389.023,5.521.061,9.176,3.771,9.164,9.136-.011,5.427-3.578,8.939-9.226,8.972-7.024.041-14.049.01-21.357.01" transform="translate(-126.495 -9.8)" fill="#454849"/>
      <path id="Path_44538" data-name="Path 44538" d="M191.231,96.981v3.268c0,15.265.035,30.53-.018,45.8-.025,7.2-5.321,11.535-12.36,10.177a8.91,8.91,0,0,1-7.463-7.125,20.315,20.315,0,0,1-.421-4.621q-.033-55.531-.016-111.062c0-.639-.009-1.28.026-1.919.329-6.114,3.984-9.9,10.138-9.966q17.7-.2,35.4,0c5.625.057,9.217,3.916,9.034,9.221s-3.694,8.6-9.3,8.625c-7.227.036-14.454.009-21.68.01H191.42V79.067h5.436c4.482,0,8.968-.1,13.446.034,5.467.163,8.937,3.8,8.9,9.066s-3.591,8.75-9.113,8.8c-6.124.057-12.249.013-18.858.013" transform="translate(-78.003 -9.78)" fill="#454849"/>
      <path id="Path_44539" data-name="Path 44539" d="M23.274,309.524v-15.1a1.358,1.358,0,0,1,1.408-1.407h2.84c2.918,0,4.171,1.356,4.171,4.12v.717c0,1.842-.563,2.994-1.817,3.505v.051c1.509.512,2.1,1.843,2.1,3.736v1.535c0,2.763-1.458,4.248-4.273,4.248H24.682a1.357,1.357,0,0,1-1.408-1.407m3.915-9.212c1.049,0,1.689-.461,1.689-1.894v-1c0-1.279-.435-1.842-1.433-1.842H26.089v4.734Zm.512,8.06c.947,0,1.458-.435,1.458-1.765v-1.561c0-1.663-.537-2.175-1.817-2.175H26.089v5.5Z" transform="translate(-10.62 -133.699)" fill="#454849"/>
      <path id="Path_44540" data-name="Path 44540" d="M41.8,309.524v-15.1a1.357,1.357,0,0,1,1.408-1.407H48.35a1.279,1.279,0,0,1,0,2.559H44.614v4.734h2.738a1.279,1.279,0,0,1,0,2.559H44.614v5.5H48.35a1.279,1.279,0,1,1,0,2.559H43.207a1.357,1.357,0,0,1-1.408-1.407" transform="translate(-19.072 -133.699)" fill="#454849"/>
      <path id="Path_44541" data-name="Path 44541" d="M57.8,306.623a1.332,1.332,0,1,1,2.661.051c0,1.279.563,1.74,1.458,1.74s1.459-.461,1.459-1.791c0-1.484-.563-2.431-2.4-4.043-2.354-2.073-3.122-3.531-3.122-5.578,0-2.815,1.458-4.453,4.2-4.453a3.781,3.781,0,0,1,4.094,4.069,1.209,1.209,0,0,1-1.331,1.356,1.241,1.241,0,0,1-1.33-1.356,1.336,1.336,0,0,0-1.408-1.51c-.895,0-1.407.486-1.407,1.715,0,1.3.589,2.252,2.431,3.864,2.354,2.073,3.1,3.505,3.1,5.732,0,2.917-1.485,4.554-4.248,4.554s-4.145-1.638-4.145-4.35" transform="translate(-26.374 -133.485)" fill="#454849"/>
      <path id="Path_44542" data-name="Path 44542" d="M77.743,309.677v-14.1H75.926a1.279,1.279,0,1,1,0-2.558h6.449a1.279,1.279,0,1,1,0,2.558H80.558v14.1a1.407,1.407,0,0,1-2.815,0" transform="translate(-34.06 -133.7)" fill="#454849"/>
      <path id="Path_44543" data-name="Path 44543" d="M100.769,306.555v-12.41a1.407,1.407,0,0,1,2.815,0v12.615c0,1.28.537,1.74,1.433,1.74s1.433-.46,1.433-1.74V294.093a1.356,1.356,0,1,1,2.712,0v12.461c0,2.866-1.433,4.5-4.2,4.5s-4.2-1.638-4.2-4.5" transform="translate(-45.979 -133.571)" fill="#454849"/>
      <path id="Path_44544" data-name="Path 44544" d="M118.621,306.623a1.332,1.332,0,1,1,2.661.051c0,1.279.563,1.74,1.458,1.74s1.459-.461,1.459-1.791c0-1.484-.563-2.431-2.4-4.043-2.354-2.073-3.122-3.531-3.122-5.578,0-2.815,1.458-4.453,4.2-4.453a3.781,3.781,0,0,1,4.094,4.069,1.209,1.209,0,0,1-1.331,1.356,1.242,1.242,0,0,1-1.33-1.356,1.335,1.335,0,0,0-1.408-1.51c-.9,0-1.408.486-1.408,1.715,0,1.3.589,2.252,2.432,3.864,2.354,2.073,3.1,3.505,3.1,5.732,0,2.917-1.484,4.554-4.248,4.554s-4.145-1.638-4.145-4.35" transform="translate(-54.125 -133.485)" fill="#454849"/>
      <path id="Path_44545" data-name="Path 44545" d="M136.559,309.524v-15.1a1.357,1.357,0,0,1,1.407-1.407h5.144a1.279,1.279,0,1,1,0,2.559h-3.736v4.734h2.738a1.279,1.279,0,1,1,0,2.559h-2.738v5.5h3.736a1.279,1.279,0,1,1,0,2.559h-5.144a1.357,1.357,0,0,1-1.407-1.407" transform="translate(-62.309 -133.699)" fill="#454849"/>
      <path id="Path_44546" data-name="Path 44546" d="M160.8,306.469v-9.416c0-2.866,1.51-4.5,4.273-4.5s4.274,1.638,4.274,4.5v9.416c0,2.866-1.51,4.5-4.274,4.5s-4.273-1.638-4.273-4.5m5.732.179v-9.775c0-1.279-.563-1.765-1.459-1.765s-1.459.486-1.459,1.765v9.775c0,1.279.563,1.765,1.459,1.765s1.459-.486,1.459-1.765" transform="translate(-73.369 -133.485)" fill="#454849"/>
      <path id="Path_44547" data-name="Path 44547" d="M179.332,309.677V294.427a1.357,1.357,0,0,1,1.407-1.407h4.913a1.279,1.279,0,1,1,0,2.558h-3.505v4.99h2.508a1.279,1.279,0,0,1,0,2.559h-2.508v6.551a1.407,1.407,0,0,1-2.815,0" transform="translate(-81.826 -133.7)" fill="#454849"/>
      <path id="Path_44548" data-name="Path 44548" d="M204.5,309.677v-14.1h-1.817a1.279,1.279,0,1,1,0-2.558h6.448a1.279,1.279,0,1,1,0,2.558h-1.817v14.1a1.407,1.407,0,0,1-2.815,0" transform="translate(-91.898 -133.7)" fill="#454849"/>
      <path id="Path_44549" data-name="Path 44549" d="M220.124,309.524v-15.1a1.357,1.357,0,0,1,1.408-1.407h5.143a1.279,1.279,0,0,1,0,2.559h-3.736v4.734h2.738a1.279,1.279,0,0,1,0,2.559h-2.738v5.5h3.736a1.279,1.279,0,0,1,0,2.559h-5.143a1.357,1.357,0,0,1-1.408-1.407" transform="translate(-100.439 -133.699)" fill="#454849"/>
      <path id="Path_44550" data-name="Path 44550" d="M236.39,306.572V296.95c0-2.764,1.433-4.4,4.145-4.4s4.145,1.638,4.145,4.4v.717a1.331,1.331,0,0,1-2.661,0v-.9c0-1.177-.562-1.663-1.407-1.663s-1.407.487-1.407,1.663v10c0,1.177.563,1.638,1.407,1.638s1.407-.461,1.407-1.638v-1.56a1.263,1.263,0,0,1,1.331-1.331,1.249,1.249,0,0,1,1.33,1.331v1.356c0,2.763-1.433,4.4-4.145,4.4s-4.145-1.638-4.145-4.4" transform="translate(-107.861 -133.485)" fill="#454849"/>
      <path id="Path_44551" data-name="Path 44551" d="M254.2,309.548v-15.4a1.407,1.407,0,1,1,2.815,0v6.039h3.019v-6.039a1.407,1.407,0,1,1,2.815,0v15.4a1.407,1.407,0,0,1-2.815,0v-6.806H257.02v6.806a1.407,1.407,0,0,1-2.815,0" transform="translate(-115.989 -133.571)" fill="#454849"/>
      <path id="Path_44552" data-name="Path 44552" d="M273.192,309.7V294.81a1.829,1.829,0,0,1,1.842-2.073c1.2,0,1.792.717,2.1,1.868l2.328,9.058h.052v-9.673a1.254,1.254,0,1,1,2.508,0v15.327c0,1.228-.614,1.638-1.485,1.638-.972,0-1.458-.486-1.765-1.663l-3.019-11.617H275.7V309.7a1.254,1.254,0,1,1-2.508,0" transform="translate(-124.653 -133.571)" fill="#454849"/>
      <path id="Path_44553" data-name="Path 44553" d="M292.244,306.469v-9.416c0-2.866,1.509-4.5,4.273-4.5s4.273,1.638,4.273,4.5v9.416c0,2.866-1.509,4.5-4.273,4.5s-4.273-1.638-4.273-4.5m5.731.179v-9.775c0-1.279-.563-1.765-1.458-1.765s-1.459.486-1.459,1.765v9.775c0,1.279.563,1.765,1.459,1.765s1.458-.486,1.458-1.765" transform="translate(-133.346 -133.485)" fill="#454849"/>
      <path id="Path_44554" data-name="Path 44554" d="M310.777,309.395V294.144a1.407,1.407,0,0,1,2.815,0v14.1H317.1a1.279,1.279,0,0,1,0,2.559h-4.912a1.357,1.357,0,0,1-1.408-1.407" transform="translate(-141.802 -133.571)" fill="#454849"/>
      <path id="Path_44555" data-name="Path 44555" d="M326.357,306.469v-9.416c0-2.866,1.509-4.5,4.273-4.5s4.273,1.638,4.273,4.5v9.416c0,2.866-1.509,4.5-4.273,4.5s-4.273-1.638-4.273-4.5m5.731.179v-9.775c0-1.279-.563-1.765-1.458-1.765s-1.459.486-1.459,1.765v9.775c0,1.279.563,1.765,1.459,1.765s1.458-.486,1.458-1.765" transform="translate(-148.911 -133.485)" fill="#454849"/>
      <path id="Path_44556" data-name="Path 44556" d="M344.641,306.469v-9.417c0-2.866,1.433-4.5,4.2-4.5s4.2,1.637,4.2,4.5v.358a1.331,1.331,0,0,1-2.661,0v-.537c0-1.279-.563-1.765-1.458-1.765s-1.458.486-1.458,1.765v9.8c0,1.28.563,1.74,1.458,1.74s1.458-.46,1.458-1.74v-3.505h-.281a1.279,1.279,0,1,1,0-2.559h1.535a1.357,1.357,0,0,1,1.408,1.407v4.453c0,2.866-1.433,4.5-4.2,4.5s-4.2-1.638-4.2-4.5" transform="translate(-157.254 -133.485)" fill="#454849"/>
      <path id="Path_44557" data-name="Path 44557" d="M365.063,309.548v-6.371l-2.789-8.291a2.238,2.238,0,0,1-.128-.793,1.243,1.243,0,0,1,1.28-1.356c.9,0,1.2.409,1.509,1.408l1.638,5.322h.052l1.638-5.425c.281-.921.639-1.3,1.433-1.3a1.137,1.137,0,0,1,1.177,1.254,2.676,2.676,0,0,1-.128.716l-2.866,8.47v6.371a1.407,1.407,0,0,1-2.815,0" transform="translate(-165.24 -133.571)" fill="#454849"/>
      <path id="Path_44558" data-name="Path 44558" d="M23.614,344.265h3.181c2.625,0,3.493,1.355,3.493,3.58,0,1.6-.417,2.972-1.947,3.3l2.155,7.2H29.21l-2.068-6.917H24.935v6.917H23.614Zm3.111,6.188c1.738,0,2.277-.869,2.277-2.607s-.452-2.59-2.242-2.59H24.935v5.2Z" transform="translate(-10.775 -157.082)" fill="#454849"/>
      <path id="Path_44559" data-name="Path 44559" d="M39.576,344.265h1.338V351.7l3.754-7.439h1.268l-2.885,6.048,3.511,8.03h-1.3L42.166,351.3,40.915,353.6v4.745H39.576Z" transform="translate(-18.058 -157.082)" fill="#454849"/>
      <path id="Path_44560" data-name="Path 44560" d="M53.205,344.265h1.13l1.86,11.437,2.12-11.228h1.1l2.173,11.245L63.3,344.265h1.112l-2.277,14.078H61.114l-2.242-11.61-2.207,11.61H55.587Z" transform="translate(-24.277 -157.082)" fill="#454849"/>
      <rect id="Rectangle_1844" data-name="Rectangle 1844" width="6.865" height="1.043" transform="translate(45.007 196.568)" fill="#454849"/>
      <path id="Path_44561" data-name="Path 44561" d="M106.88,344.265h1.39l2.989,14.078h-1.3l-.7-3.772h-3.354l-.713,3.772h-1.286Zm2.207,9.35-1.495-7.6-1.495,7.6Z" transform="translate(-47.411 -157.082)" fill="#454849"/>
      <path id="Path_44562" data-name="Path 44562" d="M120.472,344.265h1.321v13.087h4v.991h-5.319Z" transform="translate(-54.969 -157.082)" fill="#454849"/>
      <path id="Path_44563" data-name="Path 44563" d="M132.94,344.265H138v.991h-3.737v5.3h3.111v.973h-3.111v6.813H132.94Z" transform="translate(-60.658 -157.082)" fill="#454849"/>
      <path id="Path_44564" data-name="Path 44564" d="M144.621,344.265H147.8c2.625,0,3.493,1.355,3.493,3.58,0,1.6-.417,2.972-1.947,3.3l2.155,7.2h-1.286l-2.068-6.917h-2.207v6.917h-1.321Zm3.111,6.188c1.738,0,2.277-.869,2.277-2.607s-.452-2.59-2.242-2.59h-1.825v5.2Z" transform="translate(-65.988 -157.082)" fill="#454849"/>
      <path id="Path_44565" data-name="Path 44565" d="M160.584,344.265h5.092v1.025h-3.754v5.284h3.059v.973h-3.059v5.8h3.789v.991h-5.127Z" transform="translate(-73.272 -157.082)" fill="#454849"/>
      <path id="Path_44566" data-name="Path 44566" d="M173.132,344.265h3.059c2.92,0,3.823,1.651,3.823,4.137V354c0,2.625-.886,4.345-3.7,4.345h-3.181Zm3.094,13.087c2.225,0,2.433-1.512,2.433-3.563V348.54c0-2.1-.382-3.25-2.485-3.25h-1.721v12.062Z" transform="translate(-78.997 -157.082)" fill="#454849"/>
      <path id="Path_44567" data-name="Path 44567" d="M209.975,214.1H10.894A10.906,10.906,0,0,1,0,203.2V10.894A10.906,10.906,0,0,1,10.894,0H209.975a10.907,10.907,0,0,1,10.894,10.894V203.2A10.907,10.907,0,0,1,209.975,214.1M10.894,1.087a9.818,9.818,0,0,0-9.806,9.806V203.2a9.818,9.818,0,0,0,9.806,9.807H209.975a9.818,9.818,0,0,0,9.807-9.807V10.894a9.818,9.818,0,0,0-9.807-9.806Z" fill="#454849"/>
    </g>
  </g>
</svg>
